<?xml version="1.0" encoding="UTF-8" standalone="no"?>
<!DOCTYPE svg PUBLIC "-//W3C//DTD SVG 1.1//EN" "http://www.w3.org/Graphics/SVG/1.1/DTD/svg11.dtd">
<svg xmlns="http://www.w3.org/2000/svg" version="1.1" viewBox="0 0 512 512">
<g stroke-width="2.00" fill="none" stroke-linecap="butt">
<path stroke="#4d4dad" vector-effect="non-scaling-stroke" d="
  M 194.18 134.92
  Q 190.81 134.33 187.25 134.33
  Q 162.12 134.31 137.83 134.74
  Q 135.56 134.78 135.56 137.05
  Q 135.58 147.93 132.17 157.68
  Q 97.74 256.18 63.50 354.76
  Q 62.29 358.22 65.96 358.26
  Q 85.00 358.45 105.00 358.25
  Q 107.10 358.23 108.42 357.51
  Q 109.54 356.90 110.22 354.85
  Q 118.39 330.21 126.14 305.60
  A 0.86 0.85 -81.1 0 1 126.95 305.00
  L 204.81 305.00
  A 1.17 1.17 -9.4 0 1 205.92 305.79
  Q 214.56 331.01 223.13 355.44
  Q 223.69 357.04 224.48 357.64
  Q 225.60 358.49 227.14 358.38
  Q 228.78 358.26 228.87 358.26
  Q 250.55 358.57 271.57 358.26
  Q 274.38 358.22 273.44 355.58
  L 195.03 135.63
  A 1.11 1.11 -5.1 0 0 194.18 134.92"
/>
<path stroke="#4d4dad" vector-effect="non-scaling-stroke" d="
  M 332.81 285.56
  Q 364.78 285.45 396.75 285.43
  Q 400.44 285.42 408.50 286.00
  Q 418.01 286.68 431.45 285.15
  Q 431.51 285.14 434.06 285.06
  Q 436.95 284.97 437.72 282.58
  Q 437.79 282.37 438.26 277.91
  Q 439.57 265.58 439.00 254.75
  Q 437.97 235.14 427.94 217.56
  Q 415.86 196.40 391.42 189.36
  Q 375.87 184.87 358.25 186.25
  Q 330.84 188.40 311.97 205.83
  Q 304.98 212.29 299.28 221.22
  Q 285.09 243.48 284.05 270.74
  Q 283.54 284.26 286.69 299.31
  Q 291.01 320.00 303.81 335.30
  Q 310.25 343.00 318.64 348.60
  Q 336.28 360.37 358.75 362.00
  Q 372.11 362.97 384.23 362.10
  Q 395.48 361.29 403.82 359.54
  Q 413.54 357.50 422.71 353.43
  A 2.59 2.59 78.9 0 0 424.25 351.14
  Q 424.87 333.25 424.25 315.33
  A 0.37 0.36 80.1 0 0 423.77 314.99
  Q 404.69 321.62 384.68 322.42
  Q 374.93 322.81 367.87 321.43
  Q 359.52 319.79 351.78 315.93
  Q 341.49 310.79 336.44 300.06
  Q 333.13 293.05 332.36 286.06
  A 0.45 0.45 87.1 0 1 332.81 285.56"
/>
<path stroke="#4d4dad" vector-effect="non-scaling-stroke" d="
  M 140.69 256.19
  Q 139.77 259.24 138.75 262.24
  A 0.39 0.39 9.2 0 0 139.12 262.75
  L 192.38 262.75
  A 0.39 0.39 81.6 0 0 192.75 262.25
  L 165.99 174.46
  Q 165.63 173.29 165.28 174.46
  Q 153.08 215.07 140.69 256.19"
/>
<path stroke="#4d4dad" vector-effect="non-scaling-stroke" d="
  M 340.19 233.94
  Q 333.60 242.03 332.36 253.70
  A 0.45 0.44 2.9 0 0 332.81 254.19
  Q 360.31 254.44 387.80 254.02
  Q 389.44 254.00 390.66 253.68
  Q 392.09 253.32 393.43 252.78
  A 1.33 1.32 77.7 0 0 394.26 251.48
  Q 393.51 235.57 381.46 227.59
  Q 377.07 224.69 371.96 223.62
  Q 366.97 222.59 361.50 223.00
  Q 348.27 224.00 340.19 233.94"
/>
</g>
<path fill="#00005b" d="
  M 512.00 94.81
  L 512.00 418.31
  Q 510.27 451.04 489.81 474.31
  Q 464.22 503.42 425.51 505.43
  Q 424.10 505.50 405.50 505.50
  Q 255.74 505.50 105.99 505.50
  Q 86.72 505.50 86.00 505.46
  Q 61.31 504.18 41.31 490.94
  Q 3.21 465.71 0.00 418.44
  L 0.00 92.94
  Q 3.36 47.11 39.94 21.94
  Q 59.73 8.31 84.26 6.68
  Q 86.90 6.50 104.26 6.50
  Q 257.55 6.50 410.83 6.50
  Q 410.92 6.50 417.66 6.40
  Q 457.27 5.82 484.59 32.28
  Q 491.94 39.40 497.29 47.67
  Q 510.97 68.79 512.00 94.81
  Z
  M 194.18 134.92
  Q 190.81 134.33 187.25 134.33
  Q 162.12 134.31 137.83 134.74
  Q 135.56 134.78 135.56 137.05
  Q 135.58 147.93 132.17 157.68
  Q 97.74 256.18 63.50 354.76
  Q 62.29 358.22 65.96 358.26
  Q 85.00 358.45 105.00 358.25
  Q 107.10 358.23 108.42 357.51
  Q 109.54 356.90 110.22 354.85
  Q 118.39 330.21 126.14 305.60
  A 0.86 0.85 -81.1 0 1 126.95 305.00
  L 204.81 305.00
  A 1.17 1.17 -9.4 0 1 205.92 305.79
  Q 214.56 331.01 223.13 355.44
  Q 223.69 357.04 224.48 357.64
  Q 225.60 358.49 227.14 358.38
  Q 228.78 358.26 228.87 358.26
  Q 250.55 358.57 271.57 358.26
  Q 274.38 358.22 273.44 355.58
  L 195.03 135.63
  A 1.11 1.11 -5.1 0 0 194.18 134.92
  Z
  M 332.81 285.56
  Q 364.78 285.45 396.75 285.43
  Q 400.44 285.42 408.50 286.00
  Q 418.01 286.68 431.45 285.15
  Q 431.51 285.14 434.06 285.06
  Q 436.95 284.97 437.72 282.58
  Q 437.79 282.37 438.26 277.91
  Q 439.57 265.58 439.00 254.75
  Q 437.97 235.14 427.94 217.56
  Q 415.86 196.40 391.42 189.36
  Q 375.87 184.87 358.25 186.25
  Q 330.84 188.40 311.97 205.83
  Q 304.98 212.29 299.28 221.22
  Q 285.09 243.48 284.05 270.74
  Q 283.54 284.26 286.69 299.31
  Q 291.01 320.00 303.81 335.30
  Q 310.25 343.00 318.64 348.60
  Q 336.28 360.37 358.75 362.00
  Q 372.11 362.97 384.23 362.10
  Q 395.48 361.29 403.82 359.54
  Q 413.54 357.50 422.71 353.43
  A 2.59 2.59 78.9 0 0 424.25 351.14
  Q 424.87 333.25 424.25 315.33
  A 0.37 0.36 80.1 0 0 423.77 314.99
  Q 404.69 321.62 384.68 322.42
  Q 374.93 322.81 367.87 321.43
  Q 359.52 319.79 351.78 315.93
  Q 341.49 310.79 336.44 300.06
  Q 333.13 293.05 332.36 286.06
  A 0.45 0.45 87.1 0 1 332.81 285.56
  Z"
/>
<path fill="#9999ff" d="
  M 194.18 134.92
  A 1.11 1.11 -5.1 0 1 195.03 135.63
  L 273.44 355.58
  Q 274.38 358.22 271.57 358.26
  Q 250.55 358.57 228.87 358.26
  Q 228.78 358.26 227.14 358.38
  Q 225.60 358.49 224.48 357.64
  Q 223.69 357.04 223.13 355.44
  Q 214.56 331.01 205.92 305.79
  A 1.17 1.17 -9.4 0 0 204.81 305.00
  L 126.95 305.00
  A 0.86 0.85 -81.1 0 0 126.14 305.60
  Q 118.39 330.21 110.22 354.85
  Q 109.54 356.90 108.42 357.51
  Q 107.10 358.23 105.00 358.25
  Q 85.00 358.45 65.96 358.26
  Q 62.29 358.22 63.50 354.76
  Q 97.74 256.18 132.17 157.68
  Q 135.58 147.93 135.56 137.05
  Q 135.56 134.78 137.83 134.74
  Q 162.12 134.31 187.25 134.33
  Q 190.81 134.33 194.18 134.92
  Z
  M 140.69 256.19
  Q 139.77 259.24 138.75 262.24
  A 0.39 0.39 9.2 0 0 139.12 262.75
  L 192.38 262.75
  A 0.39 0.39 81.6 0 0 192.75 262.25
  L 165.99 174.46
  Q 165.63 173.29 165.28 174.46
  Q 153.08 215.07 140.69 256.19
  Z"
/>
<path fill="#00005b" d="
  M 140.69 256.19
  Q 153.08 215.07 165.28 174.46
  Q 165.63 173.29 165.99 174.46
  L 192.75 262.25
  A 0.39 0.39 81.6 0 1 192.38 262.75
  L 139.12 262.75
  A 0.39 0.39 9.2 0 1 138.75 262.24
  Q 139.77 259.24 140.69 256.19
  Z"
/>
<path fill="#9999ff" d="
  M 332.36 286.06
  Q 333.13 293.05 336.44 300.06
  Q 341.49 310.79 351.78 315.93
  Q 359.52 319.79 367.87 321.43
  Q 374.93 322.81 384.68 322.42
  Q 404.69 321.62 423.77 314.99
  A 0.37 0.36 80.1 0 1 424.25 315.33
  Q 424.87 333.25 424.25 351.14
  A 2.59 2.59 78.9 0 1 422.71 353.43
  Q 413.54 357.50 403.82 359.54
  Q 395.48 361.29 384.23 362.10
  Q 372.11 362.97 358.75 362.00
  Q 336.28 360.37 318.64 348.60
  Q 310.25 343.00 303.81 335.30
  Q 291.01 320.00 286.69 299.31
  Q 283.54 284.26 284.05 270.74
  Q 285.09 243.48 299.28 221.22
  Q 304.98 212.29 311.97 205.83
  Q 330.84 188.40 358.25 186.25
  Q 375.87 184.87 391.42 189.36
  Q 415.86 196.40 427.94 217.56
  Q 437.97 235.14 439.00 254.75
  Q 439.57 265.58 438.26 277.91
  Q 437.79 282.37 437.72 282.58
  Q 436.95 284.97 434.06 285.06
  Q 431.51 285.14 431.45 285.15
  Q 418.01 286.68 408.50 286.00
  Q 400.44 285.42 396.75 285.43
  Q 364.78 285.45 332.81 285.56
  A 0.45 0.45 87.1 0 0 332.36 286.06
  Z
  M 340.19 233.94
  Q 333.60 242.03 332.36 253.70
  A 0.45 0.44 2.9 0 0 332.81 254.19
  Q 360.31 254.44 387.80 254.02
  Q 389.44 254.00 390.66 253.68
  Q 392.09 253.32 393.43 252.78
  A 1.33 1.32 77.7 0 0 394.26 251.48
  Q 393.51 235.57 381.46 227.59
  Q 377.07 224.69 371.96 223.62
  Q 366.97 222.59 361.50 223.00
  Q 348.27 224.00 340.19 233.94
  Z"
/>
<path fill="#00005b" d="
  M 340.19 233.94
  Q 348.27 224.00 361.50 223.00
  Q 366.97 222.59 371.96 223.62
  Q 377.07 224.69 381.46 227.59
  Q 393.51 235.57 394.26 251.48
  A 1.33 1.32 77.7 0 1 393.43 252.78
  Q 392.09 253.32 390.66 253.68
  Q 389.44 254.00 387.80 254.02
  Q 360.31 254.44 332.81 254.19
  A 0.45 0.44 2.9 0 1 332.36 253.70
  Q 333.60 242.03 340.19 233.94
  Z"
/>
</svg>
