<?xml version="1.0" encoding="UTF-8" standalone="no"?>
<!DOCTYPE svg PUBLIC "-//W3C//DTD SVG 1.1//EN" "http://www.w3.org/Graphics/SVG/1.1/DTD/svg11.dtd">
<svg xmlns="http://www.w3.org/2000/svg" version="1.1" viewBox="0 0 1500 900">
<g stroke-width="2.00" fill="none" stroke-linecap="butt">
<path stroke="#effcff" vector-effect="non-scaling-stroke" d="
  M 683.25 265.29
  Q 684.61 266.48 682.75 266.46
  Q 675.41 266.36 668.06 266.35
  Q 655.89 266.34 643.75 267.04"
/>
<path stroke="#8bb1bf" vector-effect="non-scaling-stroke" d="
  M 643.75 267.04
  L 638.59 267.30"
/>
<path stroke="#8cd0e5" vector-effect="non-scaling-stroke" d="
  M 638.59 267.30
  Q 637.81 237.05 637.97 206.78
  Q 637.97 206.73 638.51 196.75
  Q 638.85 190.49 637.69 184.26
  Q 637.24 181.83 635.00 177.00
  Q 631.03 168.44 624.30 163.65
  Q 619.32 160.10 613.51 158.22
  Q 611.15 157.46 606.69 157.44
  Q 584.97 157.30 579.00 157.33
  Q 518.25 157.65 457.50 157.31
  Q 447.83 157.26 437.51 157.33
  Q 395.26 157.64 353.00 157.33
  Q 343.07 157.26 333.00 157.33
  Q 294.42 157.59 255.83 157.27
  Q 253.71 157.26 250.18 157.39
  Q 247.34 157.49 244.50 157.46
  Q 193.99 156.97 143.51 157.48"
/>
<path stroke="#aee0ef" vector-effect="non-scaling-stroke" d="
  M 143.51 157.48
  L 138.95 157.10"
/>
<path stroke="#ebfcfe" vector-effect="non-scaling-stroke" d="
  M 138.95 157.10
  Q 139.26 155.92 137.12 155.77"
/>
<path stroke="#7399a1" vector-effect="non-scaling-stroke" d="
  M 686.29 752.25
  Q 686.23 752.85 685.50 752.75
  Q 682.23 752.29 678.49 752.46
  Q 672.43 752.74 671.51 752.74
  Q 640.73 752.66 609.95 752.74
  Q 608.41 752.75 605.06 752.59
  Q 602.61 752.47 600.15 752.54
  Q 593.67 752.73 592.84 752.72
  Q 581.92 752.63 571.00 752.54"
/>
<path stroke="#47728b" vector-effect="non-scaling-stroke" d="
  M 571.00 752.54
  L 568.06 752.46
  A 0.90 0.59 71.8 0 1 567.43 751.96
  Q 567.07 751.26 565.75 751.25
  Q 525.88 751.04 486.01 751.25
  A 1.37 0.99 16.1 0 0 485.12 751.57
  L 484.25 752.46"
/>
<path stroke="#7399a1" vector-effect="non-scaling-stroke" d="
  M 484.25 752.46
  Q 438.50 752.94 392.75 752.59
  Q 385.28 752.53 372.75 752.70
  Q 358.12 752.89 343.50 752.54"
/>
<path stroke="#47728b" vector-effect="non-scaling-stroke" d="
  M 343.50 752.54
  Q 342.78 752.25 342.29 751.66
  A 1.21 0.97 67.2 0 0 341.50 751.23
  Q 315.46 750.33 289.48 752.13"
/>
<path stroke="#7399a1" vector-effect="non-scaling-stroke" d="
  M 289.48 752.13
  Q 267.74 753.34 261.50 752.75
  Q 258.43 752.46 256.36 752.57
  Q 253.22 752.75 253.12 752.75
  Q 197.38 752.59 141.64 752.51
  Q 141.51 752.51 133.87 752.73
  Q 122.53 753.07 111.85 749.33"
/>
<path stroke="#738d97" stroke-opacity="0.996" vector-effect="non-scaling-stroke" d="
  M 111.85 749.33
  Q 103.74 744.37 96.84 737.91"
/>
<path stroke="#7399a1" vector-effect="non-scaling-stroke" d="
  M 96.84 737.91
  Q 94.15 733.83 93.00 729.50
  Q 91.61 724.26 90.78 717.48"
/>
<path stroke="#3787a6" vector-effect="non-scaling-stroke" d="
  M 638.59 267.30
  Q 638.33 271.23 638.40 275.17
  Q 638.50 281.22 638.50 281.33
  Q 638.55 462.76 638.44 643.79
  A 0.71 0.71 0.0 0 1 637.73 644.50
  Q 422.65 644.50 208.50 644.50
  Q 200.34 644.50 188.51 644.22
  Q 168.05 643.73 147.59 643.98
  Q 147.53 643.98 144.40 643.89
  Q 141.96 643.82 141.00 644.50
  Q 136.81 647.47 134.81 648.31
  Q 132.92 649.11 132.31 650.26
  A 4.32 3.46 -4.6 0 1 130.59 651.88
  L 116.27 659.24"
/>
<path stroke="#d8e4e1" vector-effect="non-scaling-stroke" d="
  M 687.21 752.00
  L 686.29 752.25"
/>
<path stroke="#9bb4bf" vector-effect="non-scaling-stroke" d="
  M 686.29 752.25
  Q 685.92 747.91 686.04 743.56
  Q 686.25 735.50 686.25 735.44
  Q 686.25 546.35 686.36 357.25
  Q 686.38 313.37 685.99 268.77
  Q 685.97 266.13 683.69 267.48
  Q 682.86 267.97 681.40 267.88
  Q 679.31 267.77 679.11 267.77
  Q 674.48 267.84 669.86 267.70
  Q 665.93 267.57 660.64 267.77
  Q 652.19 268.07 643.75 267.04"
/>
<path stroke="#5bb7d6" vector-effect="non-scaling-stroke" d="
  M 143.51 157.48
  Q 139.27 158.19 139.25 162.25
  Q 139.25 163.73 139.25 166.25
  Q 139.33 319.00 139.19 642.69
  A 1.41 1.29 67.4 0 1 138.87 643.58
  Q 137.58 645.08 135.78 645.87
  A 0.80 0.75 80.1 0 0 135.33 646.56
  Q 135.26 648.01 133.78 648.57
  Q 129.97 650.01 126.67 652.29
  Q 124.03 654.12 121.41 655.63
  Q 118.68 657.20 116.27 659.24"
/>
<path stroke="#5a98af" vector-effect="non-scaling-stroke" d="
  M 116.27 659.24
  Q 103.73 667.05 90.64 673.81"
/>
<path stroke="#bae3ef" vector-effect="non-scaling-stroke" d="
  M 138.95 157.10
  Q 118.68 169.75 97.99 181.70
  Q 96.63 182.49 94.27 184.14
  Q 92.43 185.43 90.48 186.51
  Q 85.26 189.39 84.66 189.76
  Q 67.97 200.07 61.06 203.81
  Q 53.53 207.89 48.16 211.77
  Q 45.77 213.49 43.43 214.62
  Q 40.93 215.83 38.46 217.12
  Q 33.78 219.56 33.58 224.99
  Q 33.36 230.62 33.37 236.25
  Q 33.50 458.16 33.50 680.07
  Q 33.50 680.09 33.32 692.91
  Q 33.22 699.34 33.50 705.77
  Q 33.62 708.60 35.90 706.91
  Q 39.29 704.39 43.81 702.06
  Q 46.16 700.86 53.26 696.55
  Q 54.19 695.98 62.47 690.61
  Q 69.26 686.20 78.81 681.06
  Q 80.71 680.04 90.64 673.81"
/>
<path stroke="#96b3bf" vector-effect="non-scaling-stroke" d="
  M 90.64 673.81
  L 90.78 717.48"
/>
<path stroke="#d3e4e1" vector-effect="non-scaling-stroke" d="
  M 90.78 717.48
  Q 89.81 718.83 90.04 720.50"
/>
<path stroke="#b0beba" stroke-opacity="0.996" vector-effect="non-scaling-stroke" d="
  M 96.84 737.91
  Q 97.98 740.02 99.56 741.69
  Q 101.14 743.36 102.80 744.96
  Q 106.48 748.51 111.85 749.33"
/>
<path stroke="#84a3ad" vector-effect="non-scaling-stroke" d="
  M 289.48 752.13
  Q 316.52 753.35 343.50 752.54"
/>
<path stroke="#84a3ad" vector-effect="non-scaling-stroke" d="
  M 484.25 752.46
  Q 506.50 753.00 528.74 752.69
  Q 536.87 752.57 548.75 752.72
  Q 559.87 752.87 571.00 752.54"
/>
<path stroke="#c6c3c6" stroke-opacity="0.996" vector-effect="non-scaling-stroke" d="
  M 935.00 435.54
  Q 934.59 436.02 933.96 436.25"
/>
<path stroke="#686668" vector-effect="non-scaling-stroke" d="
  M 933.96 436.25
  Q 932.19 432.25 929.81 425.19
  Q 921.97 401.90 905.44 354.56
  Q 896.35 328.53 893.21 318.75"
/>
<path stroke="#93a4b3" vector-effect="non-scaling-stroke" d="
  M 893.21 318.75
  L 892.29 317.00"
/>
<path stroke="#686668" vector-effect="non-scaling-stroke" d="
  M 892.29 317.00
  Q 892.31 315.03 891.09 313.62
  A 2.06 1.51 27.6 0 1 890.67 312.76
  Q 889.94 308.56 888.02 304.00
  A 1.13 1.11 78.5 0 0 886.99 303.31
  L 842.75 303.54"
/>
<path stroke="#c0bfc0" stroke-opacity="0.996" vector-effect="non-scaling-stroke" d="
  M 842.75 303.54
  L 841.77 303.50"
/>
<path stroke="#b7b6b6" stroke-opacity="0.996" vector-effect="non-scaling-stroke" d="
  M 883.50 382.54
  Q 884.11 382.27 884.46 381.75"
/>
<path stroke="#5e5d5e" vector-effect="non-scaling-stroke" d="
  M 884.46 381.75
  Q 896.58 416.15 908.80 450.52
  Q 908.83 450.60 910.22 454.05
  Q 911.05 456.12 911.49 458.32
  A 1.36 1.24 -75.3 0 0 911.82 458.95
  L 912.08 459.21
  A 1.41 1.31 -72.4 0 1 912.48 460.06
  Q 912.76 462.48 913.85 464.62
  Q 914.49 465.87 914.69 467.04
  Q 914.91 468.29 915.23 469.59"
/>
<path stroke="#7f817f" vector-effect="non-scaling-stroke" d="
  M 915.23 469.59
  Q 918.82 470.88 922.54 470.74
  Q 927.35 470.57 927.47 470.57
  Q 940.13 470.87 952.73 469.87"
/>
<path stroke="#5e5d5e" vector-effect="non-scaling-stroke" d="
  M 952.73 469.87
  L 955.46 461.55
  A 1.45 1.16 -12.0 0 1 956.02 460.87
  Q 956.55 460.53 956.75 459.75
  Q 957.80 455.76 960.09 449.44
  Q 971.82 417.13 983.34 384.74
  Q 987.95 371.77 992.98 358.84
  Q 993.49 357.53 993.51 358.93
  Q 994.39 418.87 993.79 479.25"
/>
<path stroke="#8f8e8e" vector-effect="non-scaling-stroke" d="
  M 993.79 479.25
  Q 993.72 487.50 993.66 495.75
  Q 993.64 498.54 996.01 498.11
  Q 996.48 498.03 996.98 498.16
  Q 998.03 498.44 1000.25 498.50
  Q 1015.73 498.92 1026.40 497.66"
/>
<path stroke="#5e5d5e" vector-effect="non-scaling-stroke" d="
  M 1026.40 497.66
  Q 1026.98 466.30 1026.75 440.50
  Q 1026.21 379.36 1026.70 325.64
  Q 1026.74 321.43 1026.55 314.86
  Q 1026.40 309.47 1026.43 304.07
  A 0.50 0.49 -89.4 0 0 1025.94 303.56
  L 984.55 303.56
  A 0.69 0.68 -80.5 0 0 983.90 304.03
  L 935.43 439.95
  Q 935.02 441.10 934.75 439.87
  L 933.96 436.25"
/>
<path stroke="#2d3f4c" vector-effect="non-scaling-stroke" d="
  M 892.29 317.00
  Q 891.68 318.86 893.21 318.75"
/>
<path stroke="#323232" vector-effect="non-scaling-stroke" d="
  M 1026.40 497.66
  L 995.98 497.00
  A 1.32 1.29 89.0 0 1 994.72 495.76
  L 993.79 479.25"
/>
<path stroke="#222523" vector-effect="non-scaling-stroke" d="
  M 952.73 469.87
  Q 933.95 469.03 915.23 469.59"
/>
<path stroke="#595958" stroke-opacity="0.996" vector-effect="non-scaling-stroke" d="
  M 884.46 381.75
  L 874.99 356.34
  Q 874.21 354.27 874.25 356.48
  Q 874.31 360.00 874.13 363.49
  Q 873.49 376.11 873.58 388.75
  Q 873.95 443.13 873.46 497.50"
/>
<path stroke="#323232" vector-effect="non-scaling-stroke" d="
  M 873.46 497.50
  Q 859.89 496.83 846.27 497.93"
/>
<path stroke="#595958" stroke-opacity="0.996" vector-effect="non-scaling-stroke" d="
  M 846.27 497.93
  Q 844.98 496.83 844.19 498.19
  Q 843.39 499.56 843.00 498.00
  Q 842.40 495.64 842.55 493.26
  Q 842.75 489.80 842.75 489.73
  Q 842.79 402.44 842.51 315.15
  Q 842.50 313.42 842.71 309.36
  Q 842.86 306.46 842.75 303.54"
/>
<path stroke="#898a89" stroke-opacity="0.996" vector-effect="non-scaling-stroke" d="
  M 846.27 497.93
  Q 851.63 498.78 857.06 498.62
  Q 864.69 498.41 872.31 498.44
  Q 873.35 498.44 873.46 497.50"
/>
<path stroke="#bfbec0" stroke-opacity="0.996" vector-effect="non-scaling-stroke" d="
  M 1422.25 346.79
  L 1421.75 347.21"
/>
<path stroke="#616162" vector-effect="non-scaling-stroke" d="
  M 1421.75 347.21
  Q 1386.93 343.37 1356.16 359.22
  Q 1353.18 360.76 1353.00 360.92
  Q 1351.34 362.38 1352.81 365.19
  Q 1357.07 373.32 1361.34 381.67
  A 1.74 1.73 62.6 0 0 1363.69 382.42
  Q 1386.44 370.50 1412.75 372.75
  Q 1419.85 373.36 1424.83 378.14
  Q 1428.05 381.22 1429.91 386.21
  Q 1431.75 391.15 1431.75 395.75
  Q 1431.75 400.87 1431.75 405.50
  A 1.75 1.75 -0.2 0 1 1430.01 407.25
  Q 1416.62 407.35 1403.25 407.39
  Q 1400.57 407.40 1391.75 408.25
  Q 1382.96 409.10 1375.60 411.32
  Q 1366.87 413.96 1360.64 417.85
  Q 1347.61 425.98 1343.54 442.00"
/>
<path stroke="#bfbec0" stroke-opacity="0.996" vector-effect="non-scaling-stroke" d="
  M 1343.54 442.00
  Q 1343.19 441.59 1342.75 441.96"
/>
<path stroke="#8f8e8e" vector-effect="non-scaling-stroke" d="
  M 1458.50 497.79
  Q 1460.30 498.74 1462.34 498.61
  Q 1462.67 498.59 1464.15 498.63
  Q 1465.94 498.68 1465.46 496.50"
/>
<path stroke="#5e5d5e" vector-effect="non-scaling-stroke" d="
  M 1421.75 347.21
  Q 1437.54 349.31 1448.44 357.56
  Q 1460.62 366.78 1463.96 383.31
  Q 1465.50 390.93 1465.50 393.75
  Q 1465.53 445.12 1465.46 496.50"
/>
<path stroke="#323232" vector-effect="non-scaling-stroke" d="
  M 1465.46 496.50
  Q 1462.11 497.75 1458.50 497.79"
/>
<path stroke="#5e5d5e" vector-effect="non-scaling-stroke" d="
  M 1458.50 497.79
  L 1439.17 497.54
  A 0.68 0.65 84.0 0 1 1438.53 496.99
  L 1436.25 485.74
  A 0.74 0.74 -25.9 0 0 1435.05 485.32
  Q 1429.68 489.79 1423.67 493.37
  Q 1411.79 500.45 1398.32 501.43
  Q 1390.40 502.01 1382.70 500.97
  Q 1374.82 499.90 1367.53 496.67
  Q 1362.48 494.44 1358.07 490.93
  Q 1353.37 487.19 1350.19 483.06
  Q 1344.28 475.42 1343.21 465.65
  Q 1342.86 462.44 1342.97 453.83
  Q 1343.04 447.91 1343.54 442.00"
/>
<path stroke="#d5d2d6" stroke-opacity="0.996" vector-effect="non-scaling-stroke" d="
  M 1324.96 377.25
  L 1324.29 377.25"
/>
<path stroke="#6e6c6f" stroke-opacity="0.996" vector-effect="non-scaling-stroke" d="
  M 1324.29 377.25
  L 1331.67 352.45
  Q 1332.30 350.32 1330.06 350.32
  L 1299.68 350.24
  A 2.05 2.02 6.9 0 0 1297.70 351.77
  Q 1282.71 411.05 1266.59 470.17
  Q 1266.26 471.38 1265.88 470.18
  Q 1260.46 453.04 1255.80 436.35
  Q 1244.02 394.19 1231.20 351.24
  A 1.05 1.03 -8.2 0 0 1230.20 350.50
  L 1196.81 350.56
  A 0.51 0.49 -0.6 0 0 1196.30 351.06
  Q 1196.33 352.91 1197.44 356.31
  Q 1204.40 377.65 1211.29 399.00"
/>
<path stroke="#d5d2d6" stroke-opacity="0.996" vector-effect="non-scaling-stroke" d="
  M 1211.29 399.00
  Q 1211.62 399.98 1210.53 400.83"
/>
<path stroke="#686668" vector-effect="non-scaling-stroke" d="
  M 1324.29 377.25
  Q 1305.66 438.76 1287.06 500.28
  Q 1287.04 500.34 1283.69 511.89
  Q 1280.49 522.91 1277.75 528.50
  Q 1274.89 534.34 1271.94 538.69
  Q 1266.20 547.16 1256.81 552.06
  Q 1247.16 557.11 1234.01 557.46
  Q 1222.55 557.77 1210.24 554.41
  A 1.26 1.26 -78.5 0 1 1209.32 553.02
  Q 1210.84 541.99 1213.67 531.89
  A 0.66 0.66 14.4 0 1 1214.45 531.43
  Q 1223.22 533.45 1231.93 532.90
  Q 1237.09 532.57 1240.70 530.90
  Q 1244.83 529.00 1248.27 525.67"
/>
<path stroke="#686668" vector-effect="non-scaling-stroke" d="
  M 1248.27 525.67
  Q 1254.91 513.31 1257.64 498.75
  A 0.63 0.63 -84.7 0 0 1257.02 498.00
  Q 1251.73 498.00 1247.11 498.00
  Q 1247.01 498.00 1245.90 498.07
  Q 1243.23 498.25 1242.31 495.44
  Q 1226.62 447.28 1211.29 399.00"
/>
<path stroke="#cfccd0" stroke-opacity="0.996" vector-effect="non-scaling-stroke" d="
  M 1246.96 525.00
  Q 1246.82 525.64 1248.27 525.67"
/>
<path stroke="#41a2c3" vector-effect="non-scaling-stroke" d="
  M 337.71 471.00
  Q 335.41 470.97 335.53 473.25
  Q 335.77 477.98 337.21 482.45
  Q 337.86 484.46 338.11 485.60
  Q 338.46 487.22 338.79 488.84
  Q 338.99 489.83 339.27 493.72
  Q 339.43 496.01 340.16 498.17
  Q 341.48 502.11 341.57 502.43
  Q 343.29 508.94 345.42 515.32
  Q 345.93 516.84 346.56 520.30
  Q 347.03 522.85 348.10 525.23
  A 0.79 0.79 77.8 0 0 348.82 525.70
  L 352.00 525.71"
/>
<path stroke="#9cd3e6" vector-effect="non-scaling-stroke" d="
  M 352.00 525.71
  L 354.59 535.11
  A 1.48 1.42 81.9 0 0 355.97 536.19
  L 418.07 536.07
  A 0.65 0.64 -82.3 0 0 418.69 535.59
  Q 440.02 454.56 461.25 373.50
  Q 462.05 370.41 462.67 367.28
  Q 462.92 366.02 463.33 366.82
  Q 463.44 367.03 463.44 367.33
  Q 464.17 399.91 464.10 432.50
  Q 464.00 483.88 464.00 535.33
  A 0.92 0.92 0.0 0 0 464.92 536.25
  L 527.56 536.25
  A 0.69 0.69 0.0 0 0 528.25 535.56
  L 528.25 266.72
  A 0.47 0.46 90.0 0 0 527.79 266.25
  Q 487.09 265.68 446.19 266.18
  A 0.67 0.65 6.9 0 0 445.56 266.66
  Q 422.03 354.99 398.89 443.42
  Q 394.20 461.35 389.18 479.20
  Q 388.59 481.33 388.05 479.19
  L 334.65 266.53
  A 0.71 0.70 82.5 0 0 333.97 266.00
  L 249.70 266.06
  A 0.71 0.70 90.0 0 0 249.00 266.77
  Q 249.00 378.00 249.00 488.33
  Q 249.00 489.09 248.78 506.66
  Q 248.67 515.83 248.97 525.00
  Q 249.13 529.88 248.72 535.13
  A 0.81 0.79 -87.7 0 0 249.51 536.00
  L 306.37 536.24
  A 0.88 0.86 -86.7 0 0 307.24 535.45
  Q 307.67 530.98 307.65 526.00
  Q 307.32 442.87 307.75 359.75
  Q 307.75 359.34 308.03 359.28
  A 0.56 0.40 74.7 0 1 308.55 359.71
  Q 308.98 361.20 309.26 362.73
  Q 309.62 364.68 309.90 365.73
  Q 324.07 418.30 337.71 471.00"
/>
<path stroke="#a5cfdc" vector-effect="non-scaling-stroke" d="
  M 352.00 525.71
  L 337.71 471.00"
/>
<path stroke="#919193" vector-effect="non-scaling-stroke" d="
  M 1170.75 497.79
  Q 1171.43 498.91 1172.75 498.21"
/>
<path stroke="#828484" vector-effect="non-scaling-stroke" d="
  M 1172.75 498.21
  Q 1175.99 499.25 1178.87 497.64"
/>
<path stroke="#616162" vector-effect="non-scaling-stroke" d="
  M 1178.87 497.64
  Q 1179.64 497.84 1179.56 496.89
  Q 1179.50 496.20 1179.50 496.11
  Q 1179.51 459.64 1179.50 423.16
  Q 1179.50 419.90 1179.75 410.35
  Q 1179.92 403.94 1179.75 397.53
  Q 1179.44 385.72 1177.14 378.60
  Q 1169.90 356.25 1145.50 349.25
  Q 1138.24 347.17 1130.55 346.76
  Q 1124.39 346.43 1115.46 346.87
  Q 1089.86 348.14 1066.95 361.22
  A 1.28 1.26 -27.7 0 0 1066.42 362.87
  L 1076.27 383.30
  A 0.49 0.48 -27.6 0 0 1076.94 383.50
  Q 1098.01 371.43 1123.50 372.50
  Q 1139.88 373.19 1144.54 386.76
  Q 1145.72 390.16 1145.90 396.40
  Q 1146.05 401.29 1146.18 406.18
  A 0.65 0.64 82.0 0 1 1145.71 406.82
  Q 1142.09 407.78 1137.50 407.50
  Q 1124.61 406.72 1109.25 407.75
  Q 1109.05 407.76 1108.98 407.93
  A 0.42 0.29 -74.5 0 1 1108.67 408.19
  Q 1092.85 408.60 1078.80 415.79
  Q 1065.17 422.76 1059.78 436.23
  Q 1057.62 441.65 1057.32 449.57
  Q 1057.07 456.41 1057.51 463.25
  Q 1058.01 470.98 1061.26 477.68
  Q 1064.28 483.90 1070.21 489.16
  Q 1079.72 497.59 1092.09 500.28
  Q 1101.29 502.28 1111.98 501.49
  Q 1133.09 499.93 1149.68 484.99
  A 0.33 0.31 -28.7 0 1 1150.21 485.13
  L 1152.95 496.45
  A 1.71 1.54 82.4 0 0 1154.48 497.75
  L 1170.75 497.79"
/>
<path stroke="#222523" vector-effect="non-scaling-stroke" d="
  M 1178.87 497.64
  Q 1175.62 496.61 1172.79 498.00"
/>
<path stroke="#323232" vector-effect="non-scaling-stroke" d="
  M 1172.79 498.00
  Q 1171.90 497.05 1170.75 497.79"
/>
<path stroke="#535553" vector-effect="non-scaling-stroke" d="
  M 1172.75 498.21
  L 1172.79 498.00"
/>
<path stroke="#686668" vector-effect="non-scaling-stroke" d="
  M 1383.19 471.56
  Q 1387.98 475.39 1394.00 476.29
  Q 1398.94 477.03 1405.49 476.01
  Q 1414.03 474.68 1422.06 469.81
  Q 1427.88 466.29 1431.21 461.90
  A 1.67 1.53 66.5 0 0 1431.52 461.00
  Q 1432.11 445.38 1431.50 429.73
  A 0.76 0.76 89.6 0 0 1430.76 429.00
  Q 1418.13 428.56 1405.50 428.66
  Q 1395.27 428.74 1386.34 433.62
  Q 1380.84 436.62 1378.81 442.06
  Q 1376.56 448.08 1376.80 454.71
  Q 1377.02 460.54 1377.93 463.75
  Q 1379.27 468.44 1383.19 471.56"
/>
<path stroke="#6e6c6f" stroke-opacity="0.996" vector-effect="non-scaling-stroke" d="
  M 1097.44 471.31
  Q 1103.86 476.46 1113.00 476.39
  Q 1132.38 476.22 1145.36 462.30
  A 1.41 1.31 68.9 0 0 1145.71 461.43
  Q 1146.20 447.39 1146.01 433.33
  Q 1146.01 433.29 1146.12 431.67
  Q 1146.29 429.00 1143.31 428.94
  Q 1134.26 428.74 1128.24 428.80
  Q 1117.86 428.89 1116.65 428.99
  Q 1110.99 429.45 1105.25 431.50
  Q 1098.14 434.04 1094.40 439.89
  Q 1092.64 442.64 1091.86 446.42
  Q 1091.14 449.91 1091.16 453.47
  Q 1091.18 459.48 1092.06 462.99
  Q 1093.32 468.01 1097.44 471.31"
/>
</g>
<path fill="#dff9fe" d="
  M 683.25 265.29
  Q 684.61 266.48 682.75 266.46
  Q 675.41 266.36 668.06 266.35
  Q 655.89 266.34 643.75 267.04
  L 638.59 267.30
  Q 637.81 237.05 637.97 206.78
  Q 637.97 206.73 638.51 196.75
  Q 638.85 190.49 637.69 184.26
  Q 637.24 181.83 635.00 177.00
  Q 631.03 168.44 624.30 163.65
  Q 619.32 160.10 613.51 158.22
  Q 611.15 157.46 606.69 157.44
  Q 584.97 157.30 579.00 157.33
  Q 518.25 157.65 457.50 157.31
  Q 447.83 157.26 437.51 157.33
  Q 395.26 157.64 353.00 157.33
  Q 343.07 157.26 333.00 157.33
  Q 294.42 157.59 255.83 157.27
  Q 253.71 157.26 250.18 157.39
  Q 247.34 157.49 244.50 157.46
  Q 193.99 156.97 143.51 157.48
  L 138.95 157.10
  Q 139.26 155.92 137.12 155.77
  Q 140.65 155.17 144.03 155.37
  Q 150.39 155.75 150.49 155.75
  Q 362.37 155.75 574.25 155.75
  Q 591.93 155.75 602.02 155.57
  Q 602.93 155.55 608.47 155.21
  Q 612.70 154.94 614.94 155.56
  Q 616.57 156.02 620.56 158.55
  Q 622.01 159.47 624.33 160.23
  Q 626.66 160.99 628.06 162.19
  Q 631.56 165.16 636.70 166.42
  A 1.40 1.40 6.5 0 1 637.76 167.75
  Q 637.87 175.45 640.19 183.31
  Q 641.13 186.51 641.07 191.95
  Q 641.02 196.99 641.02 197.05
  Q 641.33 229.41 641.25 262.20
  Q 641.24 264.65 643.69 264.77
  Q 644.70 264.83 646.57 264.52
  Q 648.11 264.26 649.44 264.34
  Q 662.35 265.15 673.00 265.00
  Q 679.10 264.92 683.25 265.29
  Z"
/>
<path fill="#f6fefe" d="
  M 137.12 155.77
  Q 139.26 155.92 138.95 157.10
  Q 118.68 169.75 97.99 181.70
  Q 96.63 182.49 94.27 184.14
  Q 92.43 185.43 90.48 186.51
  Q 85.26 189.39 84.66 189.76
  Q 67.97 200.07 61.06 203.81
  Q 53.53 207.89 48.16 211.77
  Q 45.77 213.49 43.43 214.62
  Q 40.93 215.83 38.46 217.12
  Q 33.78 219.56 33.58 224.99
  Q 33.36 230.62 33.37 236.25
  Q 33.50 458.16 33.50 680.07
  Q 33.50 680.09 33.32 692.91
  Q 33.22 699.34 33.50 705.77
  Q 33.62 708.60 35.90 706.91
  Q 39.29 704.39 43.81 702.06
  Q 46.16 700.86 53.26 696.55
  Q 54.19 695.98 62.47 690.61
  Q 69.26 686.20 78.81 681.06
  Q 80.71 680.04 90.64 673.81
  L 90.78 717.48
  Q 89.81 718.83 90.04 720.50
  Q 88.24 707.54 89.50 697.25
  Q 89.99 693.28 89.31 690.09
  Q 88.70 687.20 86.24 685.41
  Q 79.63 680.58 72.53 686.04
  Q 71.74 686.65 70.61 688.09
  Q 69.37 689.67 68.44 689.94
  Q 63.17 691.43 58.63 696.00
  Q 57.35 697.29 55.61 697.79
  Q 51.44 698.99 48.04 701.61
  Q 42.85 705.61 42.79 705.65
  Q 39.01 707.89 34.73 709.12
  A 0.77 0.73 -26.0 0 1 33.93 708.87
  Q 32.03 706.47 32.00 702.00
  Q 31.66 657.25 31.96 612.50
  Q 31.99 609.05 31.79 602.01
  Q 31.65 596.76 31.76 591.50
  Q 32.06 577.63 31.82 563.75
  Q 31.72 557.74 31.83 551.74
  Q 31.95 545.38 31.83 539.75
  Q 31.65 531.07 31.78 522.38
  Q 31.92 513.75 31.78 505.12
  Q 31.65 496.47 31.83 487.83
  Q 31.95 482.11 31.83 475.67
  Q 31.72 469.59 31.82 463.50
  Q 32.06 449.63 31.82 435.75
  Q 31.72 429.74 31.83 423.74
  Q 31.95 417.39 31.83 411.74
  Q 31.64 402.87 31.79 394.00
  Q 31.93 385.75 31.79 377.51
  Q 31.65 369.25 31.81 361.00
  Q 31.95 353.40 31.80 346.51
  Q 31.60 337.78 31.75 332.00
  Q 31.96 323.73 31.89 317.54
  Q 31.76 306.51 31.76 306.45
  Q 31.83 268.66 31.99 230.87
  Q 32.00 227.95 32.53 225.17
  Q 33.06 222.34 33.63 219.53
  Q 34.24 216.47 37.31 215.31
  Q 38.68 214.80 40.75 213.79
  Q 42.38 212.99 43.85 211.69
  Q 46.42 209.41 49.01 207.13
  Q 50.88 205.48 53.37 204.61
  Q 62.85 201.26 71.71 196.47
  Q 74.37 195.03 76.25 192.71
  A 1.69 1.61 9.8 0 1 77.04 192.18
  Q 78.88 191.62 80.16 190.16
  Q 81.61 188.52 83.51 187.43
  A 1.04 0.79 82.9 0 0 83.93 186.70
  Q 84.04 185.77 85.25 186.00
  Q 88.79 186.67 91.71 184.67
  Q 91.76 184.64 95.55 180.61
  Q 98.26 177.73 102.00 176.75
  Q 102.70 176.57 103.12 176.31
  Q 103.61 176.01 103.99 175.96
  Q 106.43 175.67 107.28 173.40
  A 1.17 1.08 -89.1 0 1 107.90 172.75
  Q 110.20 171.82 112.45 170.77
  Q 114.43 169.84 116.62 168.13
  Q 121.00 164.69 124.31 163.06
  Q 132.73 158.93 137.12 155.77
  Z"
/>
<path fill="#7dc7df" d="
  M 138.95 157.10
  L 143.51 157.48
  Q 139.27 158.19 139.25 162.25
  Q 139.25 163.73 139.25 166.25
  Q 139.33 319.00 139.19 642.69
  A 1.41 1.29 67.4 0 1 138.87 643.58
  Q 137.58 645.08 135.78 645.87
  A 0.80 0.75 80.1 0 0 135.33 646.56
  Q 135.26 648.01 133.78 648.57
  Q 129.97 650.01 126.67 652.29
  Q 124.03 654.12 121.41 655.63
  Q 118.68 657.20 116.27 659.24
  Q 103.73 667.05 90.64 673.81
  Q 80.71 680.04 78.81 681.06
  Q 69.26 686.20 62.47 690.61
  Q 54.19 695.98 53.26 696.55
  Q 46.16 700.86 43.81 702.06
  Q 39.29 704.39 35.90 706.91
  Q 33.62 708.60 33.50 705.77
  Q 33.22 699.34 33.32 692.91
  Q 33.50 680.09 33.50 680.07
  Q 33.50 458.16 33.37 236.25
  Q 33.36 230.62 33.58 224.99
  Q 33.78 219.56 38.46 217.12
  Q 40.93 215.83 43.43 214.62
  Q 45.77 213.49 48.16 211.77
  Q 53.53 207.89 61.06 203.81
  Q 67.97 200.07 84.66 189.76
  Q 85.26 189.39 90.48 186.51
  Q 92.43 185.43 94.27 184.14
  Q 96.63 182.49 97.99 181.70
  Q 118.68 169.75 138.95 157.10
  Z"
/>
<path fill="#38a6cc" d="
  M 638.59 267.30
  Q 638.33 271.23 638.40 275.17
  Q 638.50 281.22 638.50 281.33
  Q 638.55 462.76 638.44 643.79
  A 0.71 0.71 0.0 0 1 637.73 644.50
  Q 422.65 644.50 208.50 644.50
  Q 200.34 644.50 188.51 644.22
  Q 168.05 643.73 147.59 643.98
  Q 147.53 643.98 144.40 643.89
  Q 141.96 643.82 141.00 644.50
  Q 136.81 647.47 134.81 648.31
  Q 132.92 649.11 132.31 650.26
  A 4.32 3.46 -4.6 0 1 130.59 651.88
  L 116.27 659.24
  Q 118.68 657.20 121.41 655.63
  Q 124.03 654.12 126.67 652.29
  Q 129.97 650.01 133.78 648.57
  Q 135.26 648.01 135.33 646.56
  A 0.80 0.75 80.1 0 1 135.78 645.87
  Q 137.58 645.08 138.87 643.58
  A 1.41 1.29 67.4 0 0 139.19 642.69
  Q 139.33 319.00 139.25 166.25
  Q 139.25 163.73 139.25 162.25
  Q 139.27 158.19 143.51 157.48
  Q 193.99 156.97 244.50 157.46
  Q 247.34 157.49 250.18 157.39
  Q 253.71 157.26 255.83 157.27
  Q 294.42 157.59 333.00 157.33
  Q 343.07 157.26 353.00 157.33
  Q 395.26 157.64 437.51 157.33
  Q 447.83 157.26 457.50 157.31
  Q 518.25 157.65 579.00 157.33
  Q 584.97 157.30 606.69 157.44
  Q 611.15 157.46 613.51 158.22
  Q 619.32 160.10 624.30 163.65
  Q 631.03 168.44 635.00 177.00
  Q 637.24 181.83 637.69 184.26
  Q 638.85 190.49 638.51 196.75
  Q 637.97 206.73 637.97 206.78
  Q 637.81 237.05 638.59 267.30
  Z
  M 337.71 471.00
  Q 335.41 470.97 335.53 473.25
  Q 335.77 477.98 337.21 482.45
  Q 337.86 484.46 338.11 485.60
  Q 338.46 487.22 338.79 488.84
  Q 338.99 489.83 339.27 493.72
  Q 339.43 496.01 340.16 498.17
  Q 341.48 502.11 341.57 502.43
  Q 343.29 508.94 345.42 515.32
  Q 345.93 516.84 346.56 520.30
  Q 347.03 522.85 348.10 525.23
  A 0.79 0.79 77.8 0 0 348.82 525.70
  L 352.00 525.71
  L 354.59 535.11
  A 1.48 1.42 81.9 0 0 355.97 536.19
  L 418.07 536.07
  A 0.65 0.64 -82.3 0 0 418.69 535.59
  Q 440.02 454.56 461.25 373.50
  Q 462.05 370.41 462.67 367.28
  Q 462.92 366.02 463.33 366.82
  Q 463.44 367.03 463.44 367.33
  Q 464.17 399.91 464.10 432.50
  Q 464.00 483.88 464.00 535.33
  A 0.92 0.92 0.0 0 0 464.92 536.25
  L 527.56 536.25
  A 0.69 0.69 0.0 0 0 528.25 535.56
  L 528.25 266.72
  A 0.47 0.46 90.0 0 0 527.79 266.25
  Q 487.09 265.68 446.19 266.18
  A 0.67 0.65 6.9 0 0 445.56 266.66
  Q 422.03 354.99 398.89 443.42
  Q 394.20 461.35 389.18 479.20
  Q 388.59 481.33 388.05 479.19
  L 334.65 266.53
  A 0.71 0.70 82.5 0 0 333.97 266.00
  L 249.70 266.06
  A 0.71 0.70 90.0 0 0 249.00 266.77
  Q 249.00 378.00 249.00 488.33
  Q 249.00 489.09 248.78 506.66
  Q 248.67 515.83 248.97 525.00
  Q 249.13 529.88 248.72 535.13
  A 0.81 0.79 -87.7 0 0 249.51 536.00
  L 306.37 536.24
  A 0.88 0.86 -86.7 0 0 307.24 535.45
  Q 307.67 530.98 307.65 526.00
  Q 307.32 442.87 307.75 359.75
  Q 307.75 359.34 308.03 359.28
  A 0.56 0.40 74.7 0 1 308.55 359.71
  Q 308.98 361.20 309.26 362.73
  Q 309.62 364.68 309.90 365.73
  Q 324.07 418.30 337.71 471.00
  Z"
/>
<path fill="#ffffff" d="
  M 683.25 265.29
  Q 684.85 265.17 686.30 265.79
  A 0.88 0.81 -82.3 0 1 686.80 266.50
  Q 688.01 278.46 688.01 290.50
  Q 688.00 515.25 688.02 740.00
  Q 688.03 746.03 687.21 752.00
  L 686.29 752.25
  Q 685.92 747.91 686.04 743.56
  Q 686.25 735.50 686.25 735.44
  Q 686.25 546.35 686.36 357.25
  Q 686.38 313.37 685.99 268.77
  Q 685.97 266.13 683.69 267.48
  Q 682.86 267.97 681.40 267.88
  Q 679.31 267.77 679.11 267.77
  Q 674.48 267.84 669.86 267.70
  Q 665.93 267.57 660.64 267.77
  Q 652.19 268.07 643.75 267.04
  Q 655.89 266.34 668.06 266.35
  Q 675.41 266.36 682.75 266.46
  Q 684.61 266.48 683.25 265.29
  Z"
/>
<path fill="#ffffff" d="
  M 352.00 525.71
  L 337.71 471.00
  Q 324.07 418.30 309.90 365.73
  Q 309.62 364.68 309.26 362.73
  Q 308.98 361.20 308.55 359.71
  A 0.56 0.40 74.7 0 0 308.03 359.28
  Q 307.75 359.34 307.75 359.75
  Q 307.32 442.87 307.65 526.00
  Q 307.67 530.98 307.24 535.45
  A 0.88 0.86 -86.7 0 1 306.37 536.24
  L 249.51 536.00
  A 0.81 0.79 -87.7 0 1 248.72 535.13
  Q 249.13 529.88 248.97 525.00
  Q 248.67 515.83 248.78 506.66
  Q 249.00 489.09 249.00 488.33
  Q 249.00 378.00 249.00 266.77
  A 0.71 0.70 -90.0 0 1 249.70 266.06
  L 333.97 266.00
  A 0.71 0.70 82.5 0 1 334.65 266.53
  L 388.05 479.19
  Q 388.59 481.33 389.18 479.20
  Q 394.20 461.35 398.89 443.42
  Q 422.03 354.99 445.56 266.66
  A 0.67 0.65 6.9 0 1 446.19 266.18
  Q 487.09 265.68 527.79 266.25
  A 0.47 0.46 90.0 0 1 528.25 266.72
  L 528.25 535.56
  A 0.69 0.69 0.0 0 1 527.56 536.25
  L 464.92 536.25
  A 0.92 0.92 -0.3 0 1 464.00 535.33
  Q 464.00 483.88 464.10 432.50
  Q 464.17 399.91 463.44 367.33
  Q 463.44 367.03 463.33 366.82
  Q 462.92 366.02 462.67 367.28
  Q 462.05 370.41 461.25 373.50
  Q 440.02 454.56 418.69 535.59
  A 0.65 0.64 -82.3 0 1 418.07 536.07
  L 355.97 536.19
  A 1.48 1.42 81.9 0 1 354.59 535.11
  L 352.00 525.71
  Z"
/>
<path fill="#36687f" d="
  M 686.29 752.25
  Q 686.23 752.85 685.50 752.75
  Q 682.23 752.29 678.49 752.46
  Q 672.43 752.74 671.51 752.74
  Q 640.73 752.66 609.95 752.74
  Q 608.41 752.75 605.06 752.59
  Q 602.61 752.47 600.15 752.54
  Q 593.67 752.73 592.84 752.72
  Q 581.92 752.63 571.00 752.54
  L 568.06 752.46
  A 0.90 0.59 71.8 0 1 567.43 751.96
  Q 567.07 751.26 565.75 751.25
  Q 525.88 751.04 486.01 751.25
  A 1.37 0.99 16.1 0 0 485.12 751.57
  L 484.25 752.46
  Q 438.50 752.94 392.75 752.59
  Q 385.28 752.53 372.75 752.70
  Q 358.12 752.89 343.50 752.54
  Q 342.78 752.25 342.29 751.66
  A 1.21 0.97 67.2 0 0 341.50 751.23
  Q 315.46 750.33 289.48 752.13
  Q 267.74 753.34 261.50 752.75
  Q 258.43 752.46 256.36 752.57
  Q 253.22 752.75 253.12 752.75
  Q 197.38 752.59 141.64 752.51
  Q 141.51 752.51 133.87 752.73
  Q 122.53 753.07 111.85 749.33
  Q 103.74 744.37 96.84 737.91
  Q 94.15 733.83 93.00 729.50
  Q 91.61 724.26 90.78 717.48
  L 90.64 673.81
  Q 103.73 667.05 116.27 659.24
  L 130.59 651.88
  A 4.32 3.46 -4.6 0 0 132.31 650.26
  Q 132.92 649.11 134.81 648.31
  Q 136.81 647.47 141.00 644.50
  Q 141.96 643.82 144.40 643.89
  Q 147.53 643.98 147.59 643.98
  Q 168.05 643.73 188.51 644.22
  Q 200.34 644.50 208.50 644.50
  Q 422.65 644.50 637.73 644.50
  A 0.71 0.71 0.0 0 0 638.44 643.79
  Q 638.55 462.76 638.50 281.33
  Q 638.50 281.22 638.40 275.17
  Q 638.33 271.23 638.59 267.30
  L 643.75 267.04
  Q 652.19 268.07 660.64 267.77
  Q 665.93 267.57 669.86 267.70
  Q 674.48 267.84 679.11 267.77
  Q 679.31 267.77 681.40 267.88
  Q 682.86 267.97 683.69 267.48
  Q 685.97 266.13 685.99 268.77
  Q 686.38 313.37 686.36 357.25
  Q 686.25 546.35 686.25 735.44
  Q 686.25 735.50 686.04 743.56
  Q 685.92 747.91 686.29 752.25
  Z"
/>
<path fill="#cfccd0" fill-opacity="0.996" d="
  M 935.00 435.54
  Q 934.59 436.02 933.96 436.25
  Q 932.19 432.25 929.81 425.19
  Q 921.97 401.90 905.44 354.56
  Q 896.35 328.53 893.21 318.75
  L 892.29 317.00
  Q 892.31 315.03 891.09 313.62
  A 2.06 1.51 27.6 0 1 890.67 312.76
  Q 889.94 308.56 888.02 304.00
  A 1.13 1.11 78.5 0 0 886.99 303.31
  L 842.75 303.54
  L 841.77 303.50
  Q 841.87 302.00 843.25 302.00
  Q 864.12 302.00 885.00 301.98
  Q 885.86 301.98 888.19 302.56
  Q 889.41 302.87 889.38 303.94
  Q 889.37 304.39 889.52 304.89
  L 891.23 310.44
  A 1.33 1.14 -86.7 0 0 891.76 311.14
  Q 892.40 311.51 892.39 312.20
  Q 892.38 312.89 892.48 313.16
  Q 896.25 324.15 900.03 335.14
  Q 900.06 335.23 901.30 338.15
  Q 901.85 339.46 902.09 340.86
  Q 902.39 342.63 902.74 343.56
  Q 908.27 358.37 913.08 373.43
  Q 913.17 373.69 914.36 376.31
  Q 915.03 377.76 915.07 379.44
  A 1.80 1.50 31.7 0 0 915.37 380.34
  Q 916.25 381.63 917.19 384.56
  Q 921.91 399.30 935.00 435.54
  Z"
/>
<path fill="#bcbabb" fill-opacity="0.996" d="
  M 883.50 382.54
  Q 884.11 382.27 884.46 381.75
  Q 896.58 416.15 908.80 450.52
  Q 908.83 450.60 910.22 454.05
  Q 911.05 456.12 911.49 458.32
  A 1.36 1.24 -75.3 0 0 911.82 458.95
  L 912.08 459.21
  A 1.41 1.31 -72.4 0 1 912.48 460.06
  Q 912.76 462.48 913.85 464.62
  Q 914.49 465.87 914.69 467.04
  Q 914.91 468.29 915.23 469.59
  Q 918.82 470.88 922.54 470.74
  Q 927.35 470.57 927.47 470.57
  Q 940.13 470.87 952.73 469.87
  L 955.46 461.55
  A 1.45 1.16 -12.0 0 1 956.02 460.87
  Q 956.55 460.53 956.75 459.75
  Q 957.80 455.76 960.09 449.44
  Q 971.82 417.13 983.34 384.74
  Q 987.95 371.77 992.98 358.84
  Q 993.49 357.53 993.51 358.93
  Q 994.39 418.87 993.79 479.25
  Q 993.72 487.50 993.66 495.75
  Q 993.64 498.54 996.01 498.11
  Q 996.48 498.03 996.98 498.16
  Q 998.03 498.44 1000.25 498.50
  Q 1015.73 498.92 1026.40 497.66
  Q 1026.98 466.30 1026.75 440.50
  Q 1026.21 379.36 1026.70 325.64
  Q 1026.74 321.43 1026.55 314.86
  Q 1026.40 309.47 1026.43 304.07
  A 0.50 0.49 -89.4 0 0 1025.94 303.56
  L 984.55 303.56
  A 0.69 0.68 -80.5 0 0 983.90 304.03
  L 935.43 439.95
  Q 935.02 441.10 934.75 439.87
  L 933.96 436.25
  Q 934.59 436.02 935.00 435.54
  Q 936.48 433.42 938.44 427.94
  Q 960.79 365.39 982.88 303.31
  A 1.98 1.98 -80.1 0 1 984.74 302.00
  L 1026.25 302.00
  A 1.69 1.69 -0.2 0 1 1027.94 303.69
  Q 1028.00 396.04 1028.06 489.01
  Q 1028.06 489.67 1028.22 493.37
  Q 1028.32 495.74 1028.09 497.75
  A 2.03 1.96 -86.4 0 1 1026.12 499.55
  L 994.55 499.51
  Q 992.39 499.51 992.14 497.30
  Q 991.92 495.38 991.92 492.50
  Q 992.00 436.95 992.00 381.39
  Q 992.00 380.89 992.26 375.61
  Q 992.40 372.71 992.07 369.81
  Q 991.99 369.09 991.60 368.85
  Q 991.21 368.61 990.74 368.81
  A 1.36 0.84 -81.4 0 0 990.13 369.53
  Q 989.07 372.25 988.12 375.00
  Q 978.03 404.13 967.35 433.05
  Q 967.32 433.12 966.83 435.00
  Q 966.51 436.22 965.65 437.21
  A 1.60 1.53 70.3 0 0 965.27 438.06
  Q 965.08 439.62 963.94 441.94
  Q 963.34 443.15 962.00 447.94
  Q 961.39 450.14 959.90 453.77
  Q 958.71 456.66 957.97 459.70
  Q 957.72 460.74 957.05 462.03
  Q 956.41 463.26 956.19 464.44
  Q 955.75 466.71 954.56 468.36
  A 1.52 1.45 64.4 0 0 954.27 469.25
  Q 954.26 471.96 951.76 471.87
  Q 950.67 471.82 950.61 471.82
  Q 936.93 472.13 923.25 472.00
  Q 917.84 471.95 915.18 471.42
  A 0.91 0.89 85.8 0 1 914.51 470.83
  Q 914.22 469.97 914.01 469.09
  Q 913.78 468.14 913.41 467.38
  Q 911.42 463.24 909.44 456.56
  Q 907.55 450.19 897.69 423.81
  Q 893.26 411.97 883.50 382.54
  Z"
/>
<path fill="#010101" d="
  M 892.29 317.00
  Q 891.68 318.86 893.21 318.75
  Q 896.35 328.53 905.44 354.56
  Q 921.97 401.90 929.81 425.19
  Q 932.19 432.25 933.96 436.25
  L 934.75 439.87
  Q 935.02 441.10 935.43 439.95
  L 983.90 304.03
  A 0.69 0.68 -80.5 0 1 984.55 303.56
  L 1025.94 303.56
  A 0.50 0.49 -89.4 0 1 1026.43 304.07
  Q 1026.40 309.47 1026.55 314.86
  Q 1026.74 321.43 1026.70 325.64
  Q 1026.21 379.36 1026.75 440.50
  Q 1026.98 466.30 1026.40 497.66
  L 995.98 497.00
  A 1.32 1.29 89.0 0 1 994.72 495.76
  L 993.79 479.25
  Q 994.39 418.87 993.51 358.93
  Q 993.49 357.53 992.98 358.84
  Q 987.95 371.77 983.34 384.74
  Q 971.82 417.13 960.09 449.44
  Q 957.80 455.76 956.75 459.75
  Q 956.55 460.53 956.02 460.87
  A 1.45 1.16 -12.0 0 0 955.46 461.55
  L 952.73 469.87
  Q 933.95 469.03 915.23 469.59
  Q 914.91 468.29 914.69 467.04
  Q 914.49 465.87 913.85 464.62
  Q 912.76 462.48 912.48 460.06
  A 1.41 1.31 -72.4 0 0 912.08 459.21
  L 911.82 458.95
  A 1.36 1.24 -75.3 0 1 911.49 458.32
  Q 911.05 456.12 910.22 454.05
  Q 908.83 450.60 908.80 450.52
  Q 896.58 416.15 884.46 381.75
  L 874.99 356.34
  Q 874.21 354.27 874.25 356.48
  Q 874.31 360.00 874.13 363.49
  Q 873.49 376.11 873.58 388.75
  Q 873.95 443.13 873.46 497.50
  Q 859.89 496.83 846.27 497.93
  Q 844.98 496.83 844.19 498.19
  Q 843.39 499.56 843.00 498.00
  Q 842.40 495.64 842.55 493.26
  Q 842.75 489.80 842.75 489.73
  Q 842.79 402.44 842.51 315.15
  Q 842.50 313.42 842.71 309.36
  Q 842.86 306.46 842.75 303.54
  L 886.99 303.31
  A 1.13 1.11 78.5 0 1 888.02 304.00
  Q 889.94 308.56 890.67 312.76
  A 2.06 1.51 27.6 0 0 891.09 313.62
  Q 892.31 315.03 892.29 317.00
  Z"
/>
<path fill="#b1b2b0" fill-opacity="0.992" d="
  M 841.77 303.50
  L 842.75 303.54
  Q 842.86 306.46 842.71 309.36
  Q 842.50 313.42 842.51 315.15
  Q 842.79 402.44 842.75 489.73
  Q 842.75 489.80 842.55 493.26
  Q 842.40 495.64 843.00 498.00
  Q 843.39 499.56 844.19 498.19
  Q 844.98 496.83 846.27 497.93
  Q 851.63 498.78 857.06 498.62
  Q 864.69 498.41 872.31 498.44
  Q 873.35 498.44 873.46 497.50
  Q 873.95 443.13 873.58 388.75
  Q 873.49 376.11 874.13 363.49
  Q 874.31 360.00 874.25 356.48
  Q 874.21 354.27 874.99 356.34
  L 884.46 381.75
  Q 884.11 382.27 883.50 382.54
  Q 879.74 371.76 876.69 365.06
  Q 876.41 364.46 875.93 364.74
  A 1.05 0.70 80.3 0 0 875.56 365.57
  L 875.44 497.43
  Q 875.44 499.49 873.38 499.54
  Q 859.91 499.82 847.69 499.75
  Q 847.56 499.75 846.35 499.58
  Q 845.44 499.46 844.65 499.96
  A 1.42 0.84 -45.0 0 1 843.75 500.19
  Q 841.75 499.79 841.75 497.25
  Q 841.73 400.37 841.77 303.50
  Z"
/>
<path fill="#587c96" d="
  M 892.29 317.00
  L 893.21 318.75
  Q 891.68 318.86 892.29 317.00
  Z"
/>
<path fill="#c1c1c4" fill-opacity="0.996" d="
  M 1149.90 488.94
  A 1.12 1.09 -25.3 0 0 1148.11 488.33
  Q 1127.70 504.59 1101.76 502.91
  Q 1081.53 501.59 1067.37 488.37
  Q 1062.75 484.06 1060.29 478.81
  Q 1057.72 473.33 1056.69 467.26
  Q 1054.86 456.54 1056.14 445.74
  Q 1057.92 430.77 1068.51 421.10
  Q 1071.93 417.97 1077.14 415.32
  Q 1080.84 413.45 1086.56 410.81
  Q 1088.99 409.69 1090.76 409.91
  A 1.74 1.43 30.9 0 0 1091.70 409.77
  Q 1094.94 408.13 1098.53 407.93
  Q 1100.76 407.80 1102.70 407.13
  Q 1106.65 405.75 1110.91 405.89
  Q 1114.00 406.00 1114.09 406.00
  Q 1128.70 406.00 1143.79 406.00
  A 0.52 0.52 88.4 0 0 1144.31 405.45
  Q 1143.92 398.66 1143.92 391.78
  Q 1143.92 388.00 1142.80 385.55
  Q 1138.75 376.67 1128.52 374.67
  Q 1124.78 373.93 1114.50 374.00
  Q 1107.99 374.04 1105.22 374.58
  Q 1090.86 377.33 1077.59 384.37
  Q 1075.89 385.27 1074.99 383.58
  Q 1070.20 374.64 1065.78 364.82
  Q 1065.75 364.76 1065.00 363.36
  Q 1063.68 360.87 1066.18 359.73
  Q 1067.55 359.10 1067.65 359.04
  Q 1080.43 352.05 1096.00 348.25
  Q 1099.28 347.45 1101.85 347.09
  Q 1106.76 346.41 1107.73 346.23
  Q 1118.44 344.27 1129.31 345.12
  Q 1130.87 345.24 1135.73 346.28
  Q 1137.87 346.74 1140.06 346.91
  Q 1142.69 347.11 1144.36 347.56
  Q 1151.14 349.38 1153.06 350.44
  Q 1155.21 351.62 1156.74 352.23
  Q 1159.16 353.19 1160.28 354.08
  Q 1168.36 360.57 1169.75 362.25
  Q 1176.68 370.67 1179.00 379.00
  Q 1181.92 389.49 1181.67 402.47
  Q 1181.50 410.97 1181.50 411.04
  Q 1181.50 454.65 1181.50 498.26
  A 0.71 0.71 80.1 0 1 1181.03 498.93
  Q 1178.85 499.72 1176.50 499.73
  Q 1165.75 499.75 1154.91 499.75
  Q 1152.05 499.75 1151.46 496.81
  L 1149.90 488.94
  Z
  M 1170.75 497.79
  Q 1171.43 498.91 1172.75 498.21
  Q 1175.99 499.25 1178.87 497.64
  Q 1179.64 497.84 1179.56 496.89
  Q 1179.50 496.20 1179.50 496.11
  Q 1179.51 459.64 1179.50 423.16
  Q 1179.50 419.90 1179.75 410.35
  Q 1179.92 403.94 1179.75 397.53
  Q 1179.44 385.72 1177.14 378.60
  Q 1169.90 356.25 1145.50 349.25
  Q 1138.24 347.17 1130.55 346.76
  Q 1124.39 346.43 1115.46 346.87
  Q 1089.86 348.14 1066.95 361.22
  A 1.28 1.26 -27.7 0 0 1066.42 362.87
  L 1076.27 383.30
  A 0.49 0.48 -27.6 0 0 1076.94 383.50
  Q 1098.01 371.43 1123.50 372.50
  Q 1139.88 373.19 1144.54 386.76
  Q 1145.72 390.16 1145.90 396.40
  Q 1146.05 401.29 1146.18 406.18
  A 0.65 0.64 82.0 0 1 1145.71 406.82
  Q 1142.09 407.78 1137.50 407.50
  Q 1124.61 406.72 1109.25 407.75
  Q 1109.05 407.76 1108.98 407.93
  A 0.42 0.29 -74.5 0 1 1108.67 408.19
  Q 1092.85 408.60 1078.80 415.79
  Q 1065.17 422.76 1059.78 436.23
  Q 1057.62 441.65 1057.32 449.57
  Q 1057.07 456.41 1057.51 463.25
  Q 1058.01 470.98 1061.26 477.68
  Q 1064.28 483.90 1070.21 489.16
  Q 1079.72 497.59 1092.09 500.28
  Q 1101.29 502.28 1111.98 501.49
  Q 1133.09 499.93 1149.68 484.99
  A 0.33 0.31 -28.7 0 1 1150.21 485.13
  L 1152.95 496.45
  A 1.71 1.54 82.4 0 0 1154.48 497.75
  L 1170.75 497.79
  Z"
/>
<path fill="#c1c1c4" fill-opacity="0.996" d="
  M 1422.25 346.79
  L 1421.75 347.21
  Q 1386.93 343.37 1356.16 359.22
  Q 1353.18 360.76 1353.00 360.92
  Q 1351.34 362.38 1352.81 365.19
  Q 1357.07 373.32 1361.34 381.67
  A 1.74 1.73 62.6 0 0 1363.69 382.42
  Q 1386.44 370.50 1412.75 372.75
  Q 1419.85 373.36 1424.83 378.14
  Q 1428.05 381.22 1429.91 386.21
  Q 1431.75 391.15 1431.75 395.75
  Q 1431.75 400.87 1431.75 405.50
  A 1.75 1.75 -0.2 0 1 1430.01 407.25
  Q 1416.62 407.35 1403.25 407.39
  Q 1400.57 407.40 1391.75 408.25
  Q 1382.96 409.10 1375.60 411.32
  Q 1366.87 413.96 1360.64 417.85
  Q 1347.61 425.98 1343.54 442.00
  Q 1343.19 441.59 1342.75 441.96
  Q 1343.70 433.48 1349.56 426.31
  Q 1354.48 420.30 1359.89 416.95
  Q 1368.71 411.48 1378.72 408.91
  Q 1379.72 408.65 1384.35 408.15
  Q 1387.23 407.84 1389.94 406.69
  Q 1391.54 406.00 1396.25 406.00
  Q 1412.63 406.00 1429.08 406.00
  A 0.92 0.92 0.0 0 0 1430.00 405.08
  Q 1430.00 399.24 1430.00 393.45
  Q 1430.00 389.48 1428.81 386.76
  Q 1423.23 373.91 1407.50 374.00
  Q 1398.24 374.05 1394.31 374.16
  Q 1392.94 374.19 1389.81 374.94
  Q 1388.02 375.38 1385.25 375.75
  Q 1380.82 376.35 1371.40 380.51
  Q 1371.32 380.54 1369.40 381.00
  Q 1368.50 381.21 1367.94 382.01
  A 1.42 1.14 -74.9 0 1 1367.20 382.55
  Q 1364.87 383.12 1363.99 383.80
  Q 1361.64 385.60 1360.32 382.95
  Q 1355.83 373.97 1351.30 365.02
  Q 1351.27 364.96 1350.35 363.78
  Q 1349.60 362.80 1350.49 361.35
  A 5.31 5.23 -87.6 0 1 1352.48 359.49
  Q 1359.25 355.90 1365.97 353.08
  Q 1376.40 348.71 1387.50 347.03
  Q 1395.78 345.77 1399.60 345.33
  Q 1405.68 344.63 1411.84 345.08
  Q 1411.95 345.09 1415.67 345.20
  Q 1419.10 345.29 1422.25 346.79
  Z"
/>
<path fill="#010101" d="
  M 1421.75 347.21
  Q 1437.54 349.31 1448.44 357.56
  Q 1460.62 366.78 1463.96 383.31
  Q 1465.50 390.93 1465.50 393.75
  Q 1465.53 445.12 1465.46 496.50
  Q 1462.11 497.75 1458.50 497.79
  L 1439.17 497.54
  A 0.68 0.65 84.0 0 1 1438.53 496.99
  L 1436.25 485.74
  A 0.74 0.74 -25.9 0 0 1435.05 485.32
  Q 1429.68 489.79 1423.67 493.37
  Q 1411.79 500.45 1398.32 501.43
  Q 1390.40 502.01 1382.70 500.97
  Q 1374.82 499.90 1367.53 496.67
  Q 1362.48 494.44 1358.07 490.93
  Q 1353.37 487.19 1350.19 483.06
  Q 1344.28 475.42 1343.21 465.65
  Q 1342.86 462.44 1342.97 453.83
  Q 1343.04 447.91 1343.54 442.00
  Q 1347.61 425.98 1360.64 417.85
  Q 1366.87 413.96 1375.60 411.32
  Q 1382.96 409.10 1391.75 408.25
  Q 1400.57 407.40 1403.25 407.39
  Q 1416.62 407.35 1430.01 407.25
  A 1.75 1.75 -0.2 0 0 1431.75 405.50
  Q 1431.75 400.87 1431.75 395.75
  Q 1431.75 391.15 1429.91 386.21
  Q 1428.05 381.22 1424.83 378.14
  Q 1419.85 373.36 1412.75 372.75
  Q 1386.44 370.50 1363.69 382.42
  A 1.74 1.73 62.6 0 1 1361.34 381.67
  Q 1357.07 373.32 1352.81 365.19
  Q 1351.34 362.38 1353.00 360.92
  Q 1353.18 360.76 1356.16 359.22
  Q 1386.93 343.37 1421.75 347.21
  Z
  M 1383.19 471.56
  Q 1387.98 475.39 1394.00 476.29
  Q 1398.94 477.03 1405.49 476.01
  Q 1414.03 474.68 1422.06 469.81
  Q 1427.88 466.29 1431.21 461.90
  A 1.67 1.53 66.5 0 0 1431.52 461.00
  Q 1432.11 445.38 1431.50 429.73
  A 0.76 0.76 89.6 0 0 1430.76 429.00
  Q 1418.13 428.56 1405.50 428.66
  Q 1395.27 428.74 1386.34 433.62
  Q 1380.84 436.62 1378.81 442.06
  Q 1376.56 448.08 1376.80 454.71
  Q 1377.02 460.54 1377.93 463.75
  Q 1379.27 468.44 1383.19 471.56
  Z"
/>
<path fill="#010101" d="
  M 1178.87 497.64
  Q 1175.62 496.61 1172.79 498.00
  Q 1171.90 497.05 1170.75 497.79
  L 1154.48 497.75
  A 1.71 1.54 82.4 0 1 1152.95 496.45
  L 1150.21 485.13
  A 0.33 0.31 -28.7 0 0 1149.68 484.99
  Q 1133.09 499.93 1111.98 501.49
  Q 1101.29 502.28 1092.09 500.28
  Q 1079.72 497.59 1070.21 489.16
  Q 1064.28 483.90 1061.26 477.68
  Q 1058.01 470.98 1057.51 463.25
  Q 1057.07 456.41 1057.32 449.57
  Q 1057.62 441.65 1059.78 436.23
  Q 1065.17 422.76 1078.80 415.79
  Q 1092.85 408.60 1108.67 408.19
  A 0.42 0.29 -74.5 0 0 1108.98 407.93
  Q 1109.05 407.76 1109.25 407.75
  Q 1124.61 406.72 1137.50 407.50
  Q 1142.09 407.78 1145.71 406.82
  A 0.65 0.64 82.0 0 0 1146.18 406.18
  Q 1146.05 401.29 1145.90 396.40
  Q 1145.72 390.16 1144.54 386.76
  Q 1139.88 373.19 1123.50 372.50
  Q 1098.01 371.43 1076.94 383.50
  A 0.49 0.48 -27.6 0 1 1076.27 383.30
  L 1066.42 362.87
  A 1.28 1.26 -27.7 0 1 1066.95 361.22
  Q 1089.86 348.14 1115.46 346.87
  Q 1124.39 346.43 1130.55 346.76
  Q 1138.24 347.17 1145.50 349.25
  Q 1169.90 356.25 1177.14 378.60
  Q 1179.44 385.72 1179.75 397.53
  Q 1179.92 403.94 1179.75 410.35
  Q 1179.50 419.90 1179.50 423.16
  Q 1179.51 459.64 1179.50 496.11
  Q 1179.50 496.20 1179.56 496.89
  Q 1179.64 497.84 1178.87 497.64
  Z
  M 1097.44 471.31
  Q 1103.86 476.46 1113.00 476.39
  Q 1132.38 476.22 1145.36 462.30
  A 1.41 1.31 68.9 0 0 1145.71 461.43
  Q 1146.20 447.39 1146.01 433.33
  Q 1146.01 433.29 1146.12 431.67
  Q 1146.29 429.00 1143.31 428.94
  Q 1134.26 428.74 1128.24 428.80
  Q 1117.86 428.89 1116.65 428.99
  Q 1110.99 429.45 1105.25 431.50
  Q 1098.14 434.04 1094.40 439.89
  Q 1092.64 442.64 1091.86 446.42
  Q 1091.14 449.91 1091.16 453.47
  Q 1091.18 459.48 1092.06 462.99
  Q 1093.32 468.01 1097.44 471.31
  Z"
/>
<path fill="#bcbabb" fill-opacity="0.996" d="
  M 1422.25 346.79
  Q 1439.95 347.67 1452.79 359.70
  Q 1459.36 365.84 1462.43 374.32
  Q 1462.81 375.39 1463.58 376.21
  A 1.30 1.22 25.1 0 1 1463.92 377.06
  Q 1463.91 379.83 1465.46 382.10
  Q 1465.75 382.53 1465.80 383.00
  Q 1466.07 386.02 1466.05 389.06
  Q 1466.04 390.62 1466.71 393.32
  Q 1467.28 395.61 1467.25 398.75
  Q 1467.13 413.46 1467.31 494.07
  Q 1467.31 494.18 1467.40 495.81
  Q 1467.64 500.08 1463.25 499.85
  Q 1461.31 499.75 1461.23 499.75
  Q 1453.62 499.76 1446.00 499.90
  Q 1442.34 499.96 1438.14 499.13
  A 0.80 0.75 89.0 0 1 1437.55 498.52
  L 1435.48 489.08
  A 1.28 1.22 -26.5 0 0 1433.45 488.45
  Q 1421.24 498.42 1406.01 501.79
  Q 1386.55 506.10 1368.21 498.60
  Q 1354.63 493.04 1346.85 480.62
  Q 1342.91 474.33 1342.50 468.75
  Q 1342.17 464.34 1341.31 461.94
  Q 1340.91 460.81 1340.95 456.99
  Q 1340.96 455.71 1341.33 452.55
  Q 1341.60 450.32 1341.56 448.08
  Q 1341.54 446.51 1341.99 445.01
  Q 1342.45 443.51 1342.75 441.96
  Q 1343.19 441.59 1343.54 442.00
  Q 1343.04 447.91 1342.97 453.83
  Q 1342.86 462.44 1343.21 465.65
  Q 1344.28 475.42 1350.19 483.06
  Q 1353.37 487.19 1358.07 490.93
  Q 1362.48 494.44 1367.53 496.67
  Q 1374.82 499.90 1382.70 500.97
  Q 1390.40 502.01 1398.32 501.43
  Q 1411.79 500.45 1423.67 493.37
  Q 1429.68 489.79 1435.05 485.32
  A 0.74 0.74 -26.8 0 1 1436.25 485.74
  L 1438.53 496.99
  A 0.68 0.65 84.0 0 0 1439.17 497.54
  L 1458.50 497.79
  Q 1460.30 498.74 1462.34 498.61
  Q 1462.67 498.59 1464.15 498.63
  Q 1465.94 498.68 1465.46 496.50
  Q 1465.53 445.12 1465.50 393.75
  Q 1465.50 390.93 1463.96 383.31
  Q 1460.62 366.78 1448.44 357.56
  Q 1437.54 349.31 1421.75 347.21
  L 1422.25 346.79
  Z"
/>
<path fill="#dbd8dd" fill-opacity="0.992" d="
  M 1324.96 377.25
  L 1324.29 377.25
  L 1331.67 352.45
  Q 1332.30 350.32 1330.06 350.32
  L 1299.68 350.24
  A 2.05 2.02 6.9 0 0 1297.70 351.77
  Q 1282.71 411.05 1266.59 470.17
  Q 1266.26 471.38 1265.88 470.18
  Q 1260.46 453.04 1255.80 436.35
  Q 1244.02 394.19 1231.20 351.24
  A 1.05 1.03 -8.2 0 0 1230.20 350.50
  L 1196.81 350.56
  A 0.51 0.49 -0.6 0 0 1196.30 351.06
  Q 1196.33 352.91 1197.44 356.31
  Q 1204.40 377.65 1211.29 399.00
  Q 1211.62 399.98 1210.53 400.83
  Q 1209.40 398.89 1209.00 395.75
  Q 1208.83 394.39 1207.79 392.90
  Q 1207.51 392.49 1207.45 392.01
  Q 1207.23 390.07 1206.51 388.29
  Q 1205.19 384.98 1205.11 384.74
  Q 1200.22 369.17 1195.20 353.63
  Q 1195.15 353.49 1194.59 352.03
  Q 1193.29 348.71 1197.00 348.75
  Q 1213.25 348.93 1230.47 348.74
  A 1.42 1.40 73.8 0 1 1231.69 349.42
  Q 1234.03 353.26 1234.07 356.69
  Q 1234.08 357.20 1234.32 357.62
  Q 1235.81 360.20 1236.30 363.13
  Q 1236.57 364.69 1237.18 366.23
  Q 1237.80 367.77 1238.06 369.41
  Q 1238.34 371.10 1239.12 372.88
  Q 1239.90 374.65 1240.00 376.50
  Q 1240.08 377.97 1240.86 378.95
  Q 1241.20 379.38 1241.27 379.81
  Q 1242.10 384.49 1243.59 388.99
  Q 1244.65 392.20 1245.46 395.24
  Q 1246.12 397.70 1247.25 401.50
  Q 1252.47 419.07 1264.87 463.26
  Q 1265.11 464.09 1265.46 464.53
  Q 1266.52 465.84 1267.14 463.52
  Q 1276.17 429.66 1285.74 392.93
  Q 1286.02 391.82 1286.43 390.76
  Q 1286.89 389.54 1287.11 388.10
  Q 1287.30 386.78 1287.85 385.52
  Q 1289.19 382.43 1289.03 379.00
  A 1.34 1.31 -27.5 0 1 1289.32 378.12
  Q 1290.67 376.41 1290.99 374.32
  Q 1291.44 371.38 1291.72 370.41
  Q 1292.44 367.90 1292.50 365.25
  Q 1292.51 364.66 1293.33 363.79
  Q 1293.67 363.43 1293.79 362.95
  L 1297.01 349.53
  A 1.04 1.02 6.7 0 1 1298.02 348.75
  Q 1313.33 348.75 1327.97 348.75
  Q 1328.01 348.75 1330.04 348.59
  Q 1332.65 348.40 1333.26 350.56
  Q 1333.58 351.72 1332.90 353.75
  Q 1331.57 357.75 1330.58 361.85
  Q 1330.39 362.61 1329.48 364.45
  Q 1328.83 365.76 1328.81 367.31
  Q 1328.80 368.11 1327.87 370.48
  Q 1327.67 371.00 1327.03 373.64
  Q 1326.53 375.68 1324.96 377.25
  Z"
/>
<path fill="#010101" d="
  M 1324.29 377.25
  Q 1305.66 438.76 1287.06 500.28
  Q 1287.04 500.34 1283.69 511.89
  Q 1280.49 522.91 1277.75 528.50
  Q 1274.89 534.34 1271.94 538.69
  Q 1266.20 547.16 1256.81 552.06
  Q 1247.16 557.11 1234.01 557.46
  Q 1222.55 557.77 1210.24 554.41
  A 1.26 1.26 -78.5 0 1 1209.32 553.02
  Q 1210.84 541.99 1213.67 531.89
  A 0.66 0.66 14.4 0 1 1214.45 531.43
  Q 1223.22 533.45 1231.93 532.90
  Q 1237.09 532.57 1240.70 530.90
  Q 1244.83 529.00 1248.27 525.67
  Q 1254.91 513.31 1257.64 498.75
  A 0.63 0.63 -84.7 0 0 1257.02 498.00
  Q 1251.73 498.00 1247.11 498.00
  Q 1247.01 498.00 1245.90 498.07
  Q 1243.23 498.25 1242.31 495.44
  Q 1226.62 447.28 1211.29 399.00
  Q 1204.40 377.65 1197.44 356.31
  Q 1196.33 352.91 1196.30 351.06
  A 0.51 0.49 -0.6 0 1 1196.81 350.56
  L 1230.20 350.50
  A 1.05 1.03 -8.2 0 1 1231.20 351.24
  Q 1244.02 394.19 1255.80 436.35
  Q 1260.46 453.04 1265.88 470.18
  Q 1266.26 471.38 1266.59 470.17
  Q 1282.71 411.05 1297.70 351.77
  A 2.05 2.02 6.9 0 1 1299.68 350.24
  L 1330.06 350.32
  Q 1332.30 350.32 1331.67 352.45
  L 1324.29 377.25
  Z"
/>
<path fill="#cfccd0" fill-opacity="0.996" d="
  M 1324.29 377.25
  L 1324.96 377.25
  Q 1325.26 379.83 1324.17 382.23
  Q 1323.87 382.89 1323.67 383.58
  Q 1318.08 402.63 1312.54 420.29
  Q 1312.52 420.34 1311.70 423.76
  Q 1311.25 425.64 1310.26 427.33
  Q 1310.01 427.75 1310.00 428.25
  Q 1309.96 430.73 1308.81 432.56
  Q 1307.96 433.93 1308.15 435.26
  A 1.20 1.08 62.7 0 1 1307.92 436.14
  Q 1307.31 436.89 1307.25 437.25
  Q 1306.62 441.13 1305.30 444.81
  Q 1305.06 445.48 1304.60 447.79
  Q 1304.30 449.34 1303.36 450.66
  A 1.43 1.42 -29.2 0 0 1303.10 451.57
  Q 1303.20 453.96 1302.06 455.56
  Q 1300.81 457.32 1300.89 459.19
  Q 1300.92 459.72 1300.72 460.13
  Q 1299.67 462.26 1299.17 464.56
  Q 1298.65 466.92 1297.95 468.94
  Q 1297.37 470.59 1296.56 473.31
  Q 1292.36 487.43 1282.19 519.94
  Q 1278.82 530.72 1272.99 539.27
  Q 1263.41 553.33 1246.86 556.97
  Q 1246.83 556.98 1244.11 557.19
  Q 1243.13 557.26 1242.25 557.70
  Q 1241.14 558.24 1240.51 558.34
  Q 1235.91 559.08 1231.26 559.08
  Q 1226.45 559.08 1225.24 558.95
  Q 1222.49 558.65 1219.35 557.49
  Q 1218.70 557.25 1218.01 557.25
  Q 1212.40 557.26 1207.49 554.46
  A 0.77 0.77 -65.2 0 1 1207.15 553.53
  Q 1207.71 551.97 1207.62 550.55
  A 0.67 0.54 -14.6 0 1 1208.05 549.97
  Q 1208.37 549.84 1208.58 549.55
  Q 1208.75 549.32 1208.75 548.92
  Q 1208.78 544.86 1210.12 541.13
  Q 1210.89 538.99 1211.08 536.71
  Q 1211.31 534.07 1212.15 531.54
  A 1.06 1.02 89.8 0 1 1212.78 530.88
  Q 1215.89 529.71 1219.21 530.75
  Q 1227.57 533.35 1236.94 530.69
  Q 1243.22 528.90 1246.96 525.00
  Q 1246.82 525.64 1248.27 525.67
  Q 1244.83 529.00 1240.70 530.90
  Q 1237.09 532.57 1231.93 532.90
  Q 1223.22 533.45 1214.45 531.43
  A 0.66 0.66 14.4 0 0 1213.67 531.89
  Q 1210.84 541.99 1209.32 553.02
  A 1.26 1.26 -78.5 0 0 1210.24 554.41
  Q 1222.55 557.77 1234.01 557.46
  Q 1247.16 557.11 1256.81 552.06
  Q 1266.20 547.16 1271.94 538.69
  Q 1274.89 534.34 1277.75 528.50
  Q 1280.49 522.91 1283.69 511.89
  Q 1287.04 500.34 1287.06 500.28
  Q 1305.66 438.76 1324.29 377.25
  Z"
/>
<path fill="#cfccd0" fill-opacity="0.996" d="
  M 1211.29 399.00
  Q 1226.62 447.28 1242.31 495.44
  Q 1243.23 498.25 1245.90 498.07
  Q 1247.01 498.00 1247.11 498.00
  Q 1251.73 498.00 1257.02 498.00
  A 0.63 0.63 -84.7 0 1 1257.64 498.75
  Q 1254.91 513.31 1248.27 525.67
  Q 1246.82 525.64 1246.96 525.00
  Q 1250.49 519.80 1251.19 517.44
  Q 1253.55 509.49 1255.90 500.94
  A 1.16 1.15 7.3 0 0 1254.76 499.48
  Q 1250.28 499.57 1246.83 499.95
  Q 1244.70 500.19 1243.13 499.15
  Q 1241.96 498.37 1241.25 496.24
  Q 1225.54 448.65 1210.53 400.83
  Q 1211.62 399.98 1211.29 399.00
  Z"
/>
<path fill="#dbd8dd" fill-opacity="0.992" d="
  M 1097.44 471.31
  Q 1093.32 468.01 1092.06 462.99
  Q 1091.18 459.48 1091.16 453.47
  Q 1091.14 449.91 1091.86 446.42
  Q 1092.64 442.64 1094.40 439.89
  Q 1098.14 434.04 1105.25 431.50
  Q 1110.99 429.45 1116.65 428.99
  Q 1117.86 428.89 1128.24 428.80
  Q 1134.26 428.74 1143.31 428.94
  Q 1146.29 429.00 1146.12 431.67
  Q 1146.01 433.29 1146.01 433.33
  Q 1146.20 447.39 1145.71 461.43
  A 1.41 1.31 68.9 0 1 1145.36 462.30
  Q 1132.38 476.22 1113.00 476.39
  Q 1103.86 476.46 1097.44 471.31
  Z
  M 1096.69 440.97
  L 1095.81 441.03
  A 1.01 0.80 -73.1 0 0 1095.10 441.52
  L 1093.29 444.60
  A 1.16 1.04 -40.3 0 0 1093.17 445.47
  Q 1093.41 446.32 1093.29 447.16
  Q 1093.05 448.92 1093.05 449.00
  Q 1092.99 453.13 1092.99 457.26
  Q 1092.99 462.48 1094.04 465.09
  Q 1095.67 469.14 1099.31 471.44
  Q 1104.16 474.50 1106.94 474.81
  Q 1128.50 477.21 1143.70 462.42
  A 1.28 1.25 69.5 0 0 1144.08 461.56
  Q 1144.68 447.54 1144.54 433.50
  Q 1144.51 430.25 1140.75 430.25
  Q 1120.79 430.26 1110.12 431.17
  Q 1109.31 431.24 1108.43 431.55
  Q 1107.59 431.84 1106.75 432.08
  Q 1101.09 433.69 1097.38 438.17
  A 1.44 0.89 72.6 0 0 1097.15 439.06
  L 1097.22 440.44
  A 0.57 0.50 -3.8 0 1 1096.69 440.97
  Z"
/>
<path fill="#cfccd0" fill-opacity="0.996" d="
  M 1383.19 471.56
  Q 1379.27 468.44 1377.93 463.75
  Q 1377.02 460.54 1376.80 454.71
  Q 1376.56 448.08 1378.81 442.06
  Q 1380.84 436.62 1386.34 433.62
  Q 1395.27 428.74 1405.50 428.66
  Q 1418.13 428.56 1430.76 429.00
  A 0.76 0.76 89.6 0 1 1431.50 429.73
  Q 1432.11 445.38 1431.52 461.00
  A 1.67 1.53 66.5 0 1 1431.21 461.90
  Q 1427.88 466.29 1422.06 469.81
  Q 1414.03 474.68 1405.49 476.01
  Q 1398.94 477.03 1394.00 476.29
  Q 1387.98 475.39 1383.19 471.56
  Z
  M 1384.19 470.81
  Q 1385.80 472.11 1388.09 473.12
  Q 1388.19 473.16 1390.13 474.27
  Q 1391.42 475.00 1393.25 475.00
  Q 1403.38 474.99 1407.75 474.78
  A 1.72 1.44 -61.7 0 0 1408.63 474.43
  Q 1409.85 473.46 1411.32 473.15
  Q 1414.23 472.53 1414.56 472.39
  Q 1423.08 468.87 1429.41 462.12
  A 1.34 1.20 -26.0 0 0 1429.76 461.26
  L 1429.99 431.39
  A 1.15 1.13 0.2 0 0 1428.84 430.25
  Q 1421.50 430.25 1414.25 430.09
  Q 1406.35 429.92 1398.54 430.84
  Q 1393.31 431.45 1390.07 432.97
  Q 1386.02 434.86 1382.78 438.05
  Q 1381.86 438.96 1381.19 440.33
  Q 1380.57 441.60 1379.94 442.86
  Q 1378.95 444.85 1378.77 446.85
  Q 1378.44 450.58 1378.60 454.33
  Q 1378.60 454.46 1378.59 459.16
  Q 1378.57 466.27 1384.19 470.81
  Z"
/>
<path fill="#434844" d="
  M 952.73 469.87
  Q 940.13 470.87 927.47 470.57
  Q 927.35 470.57 922.54 470.74
  Q 918.82 470.88 915.23 469.59
  Q 933.95 469.03 952.73 469.87
  Z"
/>
<path fill="#4a9eb9" d="
  M 337.71 471.00
  L 352.00 525.71
  L 348.82 525.70
  A 0.79 0.79 77.8 0 1 348.10 525.23
  Q 347.03 522.85 346.56 520.30
  Q 345.93 516.84 345.42 515.32
  Q 343.29 508.94 341.57 502.43
  Q 341.48 502.11 340.16 498.17
  Q 339.43 496.01 339.27 493.72
  Q 338.99 489.83 338.79 488.84
  Q 338.46 487.22 338.11 485.60
  Q 337.86 484.46 337.21 482.45
  Q 335.77 477.98 335.53 473.25
  Q 335.41 470.97 337.71 471.00
  Z"
/>
<path fill="#626262" d="
  M 993.79 479.25
  L 994.72 495.76
  A 1.32 1.29 89.0 0 0 995.98 497.00
  L 1026.40 497.66
  Q 1015.73 498.92 1000.25 498.50
  Q 998.03 498.44 996.98 498.16
  Q 996.48 498.03 996.01 498.11
  Q 993.64 498.54 993.66 495.75
  Q 993.72 487.50 993.79 479.25
  Z"
/>
<path fill="#626262" d="
  M 1465.46 496.50
  Q 1465.94 498.68 1464.15 498.63
  Q 1462.67 498.59 1462.34 498.61
  Q 1460.30 498.74 1458.50 497.79
  Q 1462.11 497.75 1465.46 496.50
  Z"
/>
<path fill="#626262" d="
  M 873.46 497.50
  Q 873.35 498.44 872.31 498.44
  Q 864.69 498.41 857.06 498.62
  Q 851.63 498.78 846.27 497.93
  Q 859.89 496.83 873.46 497.50
  Z"
/>
<path fill="#434844" d="
  M 1178.87 497.64
  Q 1175.99 499.25 1172.75 498.21
  L 1172.79 498.00
  Q 1175.62 496.61 1178.87 497.64
  Z"
/>
<path fill="#626262" d="
  M 1172.79 498.00
  L 1172.75 498.21
  Q 1171.43 498.91 1170.75 497.79
  Q 1171.90 497.05 1172.79 498.00
  Z"
/>
<path fill="#b0c9c3" d="
  M 90.78 717.48
  Q 91.61 724.26 93.00 729.50
  Q 94.15 733.83 96.84 737.91
  Q 97.98 740.02 99.56 741.69
  Q 101.14 743.36 102.80 744.96
  Q 106.48 748.51 111.85 749.33
  Q 122.53 753.07 133.87 752.73
  Q 141.51 752.51 141.64 752.51
  Q 197.38 752.59 253.12 752.75
  Q 253.22 752.75 256.36 752.57
  Q 258.43 752.46 261.50 752.75
  Q 267.74 753.34 289.48 752.13
  Q 316.52 753.35 343.50 752.54
  Q 358.12 752.89 372.75 752.70
  Q 385.28 752.53 392.75 752.59
  Q 438.50 752.94 484.25 752.46
  Q 506.50 753.00 528.74 752.69
  Q 536.87 752.57 548.75 752.72
  Q 559.87 752.87 571.00 752.54
  Q 581.92 752.63 592.84 752.72
  Q 593.67 752.73 600.15 752.54
  Q 602.61 752.47 605.06 752.59
  Q 608.41 752.75 609.95 752.74
  Q 640.73 752.66 671.51 752.74
  Q 672.43 752.74 678.49 752.46
  Q 682.23 752.29 685.50 752.75
  Q 686.23 752.85 686.29 752.25
  L 687.21 752.00
  Q 687.70 753.42 686.59 753.56
  Q 685.68 753.68 685.55 753.71
  Q 684.33 754.00 682.50 754.00
  Q 406.76 754.00 131.02 754.00
  Q 123.16 754.00 118.04 753.04
  Q 111.43 751.79 105.44 749.56
  Q 100.32 747.65 97.91 742.93
  Q 96.91 740.97 95.58 739.35
  Q 93.46 736.77 92.44 733.52
  Q 90.46 727.15 90.04 720.50
  Q 89.81 718.83 90.78 717.48
  Z"
/>
<path fill="#b1b2b0" fill-opacity="0.992" d="
  M 96.84 737.91
  Q 103.74 744.37 111.85 749.33
  Q 106.48 748.51 102.80 744.96
  Q 101.14 743.36 99.56 741.69
  Q 97.98 740.02 96.84 737.91
  Z"
/>
<path fill="#587c96" d="
  M 343.50 752.54
  Q 316.52 753.35 289.48 752.13
  Q 315.46 750.33 341.50 751.23
  A 1.21 0.97 67.2 0 1 342.29 751.66
  Q 342.78 752.25 343.50 752.54
  Z"
/>
<path fill="#587c96" d="
  M 571.00 752.54
  Q 559.87 752.87 548.75 752.72
  Q 536.87 752.57 528.74 752.69
  Q 506.50 753.00 484.25 752.46
  L 485.12 751.57
  A 1.37 0.99 16.1 0 1 486.01 751.25
  Q 525.88 751.04 565.75 751.25
  Q 567.07 751.26 567.43 751.96
  A 0.90 0.59 71.8 0 0 568.06 752.46
  L 571.00 752.54
  Z"
/>
</svg>
