<?xml version="1.0" encoding="UTF-8" standalone="no"?>
<!DOCTYPE svg PUBLIC "-//W3C//DTD SVG 1.1//EN" "http://www.w3.org/Graphics/SVG/1.1/DTD/svg11.dtd">
<svg xmlns="http://www.w3.org/2000/svg" version="1.1" viewBox="0 0 512 512">
<g stroke-width="2.00" fill="none" stroke-linecap="butt">
<path stroke="#4d4dad" vector-effect="non-scaling-stroke" d="
  M 167.76 289.02
  A 1.34 1.33 1.4 0 1 169.18 287.67
  Q 189.12 288.89 207.68 287.12
  Q 225.31 285.44 239.94 279.19
  Q 255.42 272.57 266.56 258.56
  Q 280.19 241.43 282.45 218.08
  Q 284.54 196.52 276.50 178.25
  Q 267.14 156.99 245.63 145.32
  Q 232.62 138.27 217.56 135.69
  Q 202.01 133.02 187.00 133.29
  Q 155.00 133.88 123.88 134.73
  A 1.92 1.92 4.9 0 0 122.05 136.27
  Q 121.38 139.61 121.38 141.50
  Q 121.50 245.37 121.40 349.25
  Q 121.39 353.13 121.75 357.02
  Q 121.96 359.25 124.20 359.25
  Q 143.63 359.25 163.50 359.25
  Q 168.05 359.25 167.85 355.38
  Q 167.76 353.71 167.76 353.61
  Q 168.26 320.94 167.76 289.02"
/>
<path stroke="#4d4dad" vector-effect="non-scaling-stroke" d="
  M 357.30 210.43
  Q 357.04 202.60 355.06 193.44
  Q 354.11 189.01 350.55 188.28
  Q 350.41 188.25 344.44 188.25
  Q 328.26 188.25 312.47 188.25
  A 1.75 1.74 88.4 0 0 310.73 190.09
  Q 311.84 210.36 311.88 230.25
  Q 312.00 291.00 312.00 351.75
  Q 312.00 353.31 312.10 354.31
  Q 312.12 354.49 312.23 356.20
  Q 312.42 359.25 316.25 359.25
  Q 335.96 359.25 355.66 359.25
  Q 355.76 359.25 356.83 359.30
  Q 359.73 359.42 360.21 357.13
  Q 360.25 356.93 360.25 353.36
  Q 360.25 301.17 360.25 248.34
  A 1.75 1.74 -23.0 0 1 360.75 247.12
  Q 365.76 242.11 371.20 239.71
  Q 390.54 231.16 412.55 231.77
  Q 415.44 231.85 415.44 228.97
  L 415.50 187.63
  Q 415.50 184.57 412.43 184.56
  Q 396.24 184.49 381.35 192.38
  Q 367.96 199.47 357.65 210.57
  Q 357.32 210.93 357.30 210.43"
/>
<path stroke="#4d4dad" vector-effect="non-scaling-stroke" d="
  M 226.40 235.66
  Q 231.06 231.19 233.56 224.81
  Q 238.46 212.32 234.59 199.68
  Q 232.10 191.56 226.37 186.01
  Q 221.42 181.21 212.96 178.44
  Q 205.21 175.90 197.01 175.48
  Q 196.07 175.43 182.99 175.45
  Q 175.87 175.46 168.95 175.73
  A 1.05 1.04 87.6 0 0 167.95 176.83
  Q 168.34 184.40 168.22 191.54
  Q 168.00 204.38 168.00 204.48
  Q 168.00 225.62 168.00 246.83
  A 0.68 0.68 1.3 0 0 168.65 247.51
  Q 178.25 247.90 188.00 247.87
  Q 196.29 247.84 204.31 246.07
  Q 211.79 244.41 216.07 242.56
  Q 221.78 240.09 226.40 235.66"
/>
</g>
<path fill="#00005b" d="
  M 512.00 94.81
  L 512.00 418.31
  Q 510.43 449.97 490.56 473.31
  Q 466.68 501.37 430.49 504.97
  Q 425.20 505.50 410.49 505.50
  Q 254.25 505.50 98.00 505.50
  Q 84.21 505.50 78.03 504.67
  Q 61.23 502.42 47.25 494.50
  Q 3.71 469.83 0.00 418.44
  L 0.00 92.94
  Q 3.07 49.43 36.69 24.19
  Q 57.75 8.37 84.51 6.66
  Q 86.93 6.50 104.49 6.50
  Q 254.50 6.50 404.50 6.50
  Q 423.67 6.50 424.50 6.54
  Q 463.00 8.36 488.54 36.37
  Q 495.49 43.99 500.27 52.53
  Q 511.12 71.93 512.00 94.81
  Z
  M 167.76 289.02
  A 1.34 1.33 1.4 0 1 169.18 287.67
  Q 189.12 288.89 207.68 287.12
  Q 225.31 285.44 239.94 279.19
  Q 255.42 272.57 266.56 258.56
  Q 280.19 241.43 282.45 218.08
  Q 284.54 196.52 276.50 178.25
  Q 267.14 156.99 245.63 145.32
  Q 232.62 138.27 217.56 135.69
  Q 202.01 133.02 187.00 133.29
  Q 155.00 133.88 123.88 134.73
  A 1.92 1.92 4.9 0 0 122.05 136.27
  Q 121.38 139.61 121.38 141.50
  Q 121.50 245.37 121.40 349.25
  Q 121.39 353.13 121.75 357.02
  Q 121.96 359.25 124.20 359.25
  Q 143.63 359.25 163.50 359.25
  Q 168.05 359.25 167.85 355.38
  Q 167.76 353.71 167.76 353.61
  Q 168.26 320.94 167.76 289.02
  Z
  M 357.30 210.43
  Q 357.04 202.60 355.06 193.44
  Q 354.11 189.01 350.55 188.28
  Q 350.41 188.25 344.44 188.25
  Q 328.26 188.25 312.47 188.25
  A 1.75 1.74 88.4 0 0 310.73 190.09
  Q 311.84 210.36 311.88 230.25
  Q 312.00 291.00 312.00 351.75
  Q 312.00 353.31 312.10 354.31
  Q 312.12 354.49 312.23 356.20
  Q 312.42 359.25 316.25 359.25
  Q 335.96 359.25 355.66 359.25
  Q 355.76 359.25 356.83 359.30
  Q 359.73 359.42 360.21 357.13
  Q 360.25 356.93 360.25 353.36
  Q 360.25 301.17 360.25 248.34
  A 1.75 1.74 -23.0 0 1 360.75 247.12
  Q 365.76 242.11 371.20 239.71
  Q 390.54 231.16 412.55 231.77
  Q 415.44 231.85 415.44 228.97
  L 415.50 187.63
  Q 415.50 184.57 412.43 184.56
  Q 396.24 184.49 381.35 192.38
  Q 367.96 199.47 357.65 210.57
  Q 357.32 210.93 357.30 210.43
  Z"
/>
<path fill="#9999ff" d="
  M 167.76 289.02
  Q 168.26 320.94 167.76 353.61
  Q 167.76 353.71 167.85 355.38
  Q 168.05 359.25 163.50 359.25
  Q 143.63 359.25 124.20 359.25
  Q 121.96 359.25 121.75 357.02
  Q 121.39 353.13 121.40 349.25
  Q 121.50 245.37 121.38 141.50
  Q 121.38 139.61 122.05 136.27
  A 1.92 1.92 4.9 0 1 123.88 134.73
  Q 155.00 133.88 187.00 133.29
  Q 202.01 133.02 217.56 135.69
  Q 232.62 138.27 245.63 145.32
  Q 267.14 156.99 276.50 178.25
  Q 284.54 196.52 282.45 218.08
  Q 280.19 241.43 266.56 258.56
  Q 255.42 272.57 239.94 279.19
  Q 225.31 285.44 207.68 287.12
  Q 189.12 288.89 169.18 287.67
  A 1.34 1.33 1.4 0 0 167.76 289.02
  Z
  M 226.40 235.66
  Q 231.06 231.19 233.56 224.81
  Q 238.46 212.32 234.59 199.68
  Q 232.10 191.56 226.37 186.01
  Q 221.42 181.21 212.96 178.44
  Q 205.21 175.90 197.01 175.48
  Q 196.07 175.43 182.99 175.45
  Q 175.87 175.46 168.95 175.73
  A 1.05 1.04 87.6 0 0 167.95 176.83
  Q 168.34 184.40 168.22 191.54
  Q 168.00 204.38 168.00 204.48
  Q 168.00 225.62 168.00 246.83
  A 0.68 0.68 1.3 0 0 168.65 247.51
  Q 178.25 247.90 188.00 247.87
  Q 196.29 247.84 204.31 246.07
  Q 211.79 244.41 216.07 242.56
  Q 221.78 240.09 226.40 235.66
  Z"
/>
<path fill="#00005b" d="
  M 226.40 235.66
  Q 221.78 240.09 216.07 242.56
  Q 211.79 244.41 204.31 246.07
  Q 196.29 247.84 188.00 247.87
  Q 178.25 247.90 168.65 247.51
  A 0.68 0.68 1.3 0 1 168.00 246.83
  Q 168.00 225.62 168.00 204.48
  Q 168.00 204.38 168.22 191.54
  Q 168.34 184.40 167.95 176.83
  A 1.05 1.04 87.6 0 1 168.95 175.73
  Q 175.87 175.46 182.99 175.45
  Q 196.07 175.43 197.01 175.48
  Q 205.21 175.90 212.96 178.44
  Q 221.42 181.21 226.37 186.01
  Q 232.10 191.56 234.59 199.68
  Q 238.46 212.32 233.56 224.81
  Q 231.06 231.19 226.40 235.66
  Z"
/>
<path fill="#9999ff" d="
  M 357.65 210.57
  Q 367.96 199.47 381.35 192.38
  Q 396.24 184.49 412.43 184.56
  Q 415.50 184.57 415.50 187.63
  L 415.44 228.97
  Q 415.44 231.85 412.55 231.77
  Q 390.54 231.16 371.20 239.71
  Q 365.76 242.11 360.75 247.12
  A 1.75 1.74 -23.0 0 0 360.25 248.34
  Q 360.25 301.17 360.25 353.36
  Q 360.25 356.93 360.21 357.13
  Q 359.73 359.42 356.83 359.30
  Q 355.76 359.25 355.66 359.25
  Q 335.96 359.25 316.25 359.25
  Q 312.42 359.25 312.23 356.20
  Q 312.12 354.49 312.10 354.31
  Q 312.00 353.31 312.00 351.75
  Q 312.00 291.00 311.88 230.25
  Q 311.84 210.36 310.73 190.09
  A 1.75 1.74 88.4 0 1 312.47 188.25
  Q 328.26 188.25 344.44 188.25
  Q 350.41 188.25 350.55 188.28
  Q 354.11 189.01 355.06 193.44
  Q 357.04 202.60 357.30 210.43
  Q 357.32 210.93 357.65 210.57
  Z"
/>
</svg>
