<?xml version="1.0" encoding="UTF-8" standalone="no"?>
<!DOCTYPE svg PUBLIC "-//W3C//DTD SVG 1.1//EN" "http://www.w3.org/Graphics/SVG/1.1/DTD/svg11.dtd">
<svg xmlns="http://www.w3.org/2000/svg" version="1.1" viewBox="0 0 330 333">
<path fill="#0e1128" d="
  M 141.50 0.46
  Q 126.70 9.51 116.65 23.62
  Q 109.28 33.97 107.25 46.00
  Q 105.71 55.12 108.20 63.88
  Q 110.30 71.27 114.54 74.14
  Q 120.25 78.00 128.39 73.80
  A 0.59 0.59 76.3 0 1 129.25 74.33
  Q 129.25 155.36 129.25 235.99
  Q 129.25 239.04 130.38 241.26
  Q 134.09 248.53 141.52 252.45
  Q 147.98 255.86 155.27 254.88
  Q 162.44 253.90 168.94 250.69
  Q 181.43 244.52 192.06 235.51
  A 1.10 1.06 70.6 0 0 192.44 234.68
  Q 192.55 169.71 192.69 104.75
  Q 192.72 93.15 186.31 80.94
  Q 181.39 71.54 173.06 66.02
  Q 171.88 65.23 173.29 65.09
  Q 191.23 63.32 204.99 72.68
  A 0.87 0.87 -52.3 0 0 206.14 72.53
  Q 246.46 25.99 307.01 15.50
  Q 308.21 15.29 307.28 16.07
  Q 283.95 35.61 269.81 62.81
  Q 262.97 75.99 260.30 90.94
  Q 259.05 97.99 259.11 109.76
  Q 259.44 172.24 259.76 236.09
  A 3.07 3.07 21.6 0 0 260.73 238.33
  Q 263.48 240.93 267.17 242.28
  Q 270.56 243.52 274.47 243.36
  Q 280.04 243.13 285.56 240.56
  Q 292.27 237.44 296.31 234.51
  Q 313.78 221.82 328.57 206.05
  Q 330.10 204.42 329.53 206.58
  Q 314.61 263.26 267.44 299.19
  Q 254.87 308.76 237.69 317.04
  A 0.67 0.67 -33.4 0 1 236.91 316.88
  L 211.04 287.79
  A 0.72 0.72 46.6 0 0 209.99 287.76
  Q 188.09 309.72 166.69 331.19
  Q 165.11 332.77 163.75 332.79
  Q 114.50 331.48 73.90 304.06
  Q 50.96 288.57 33.78 266.03
  Q 32.82 264.77 34.33 265.27
  Q 41.46 267.67 48.81 267.66
  Q 53.16 267.65 55.98 266.25
  Q 59.63 264.44 61.45 260.94
  Q 62.98 258.00 63.05 250.80
  Q 63.58 190.79 63.04 130.78
  Q 62.99 125.05 61.75 121.88
  Q 60.00 117.41 56.57 114.24
  Q 51.81 109.85 44.81 109.14
  Q 33.87 108.03 25.83 117.09
  Q 20.87 122.69 18.81 126.06
  Q 7.66 144.38 0.14 164.50
  L 0.00 158.19
  Q 2.22 114.98 23.56 79.81
  Q 48.64 38.48 91.67 16.40
  Q 115.25 4.30 141.50 0.46
  Z"
/>
</svg>
