<?xml version="1.0" encoding="UTF-8" standalone="no"?>
<!DOCTYPE svg PUBLIC "-//W3C//DTD SVG 1.1//EN" "http://www.w3.org/Graphics/SVG/1.1/DTD/svg11.dtd">
<svg xmlns="http://www.w3.org/2000/svg" version="1.1" viewBox="0 0 512 512">
<g stroke-width="2.00" fill="none" stroke-linecap="butt">
<path stroke="#a33197" vector-effect="non-scaling-stroke" d="
  M 306.14 353.36
  Q 315.07 361.51 325.50 365.75
  Q 336.11 370.06 347.71 371.31
  Q 356.04 372.20 367.68 371.72
  Q 396.14 370.56 422.00 358.89
  Q 424.41 357.80 423.80 355.22
  Q 422.31 348.86 420.79 342.68
  Q 420.18 340.20 420.08 338.26
  Q 419.99 336.33 420.00 333.75
  Q 420.23 265.80 419.79 177.60
  Q 419.78 175.68 420.02 161.41
  Q 420.16 153.15 419.72 145.18
  A 1.22 1.21 88.3 0 0 418.50 144.02
  L 381.44 144.23
  A 1.50 1.46 -90.0 0 0 379.99 145.72
  L 379.82 212.81
  A 0.43 0.43 4.6 0 1 379.32 213.23
  Q 344.50 207.74 317.37 227.09
  Q 309.04 233.03 302.64 240.53
  Q 285.26 260.90 284.00 288.99
  Q 283.20 306.93 288.11 324.18
  Q 293.00 341.36 306.14 353.36"
/>
<path stroke="#a33197" vector-effect="non-scaling-stroke" d="
  M 178.84 235.00
  Q 157.81 194.70 136.94 154.31
  Q 135.57 151.66 132.09 151.87
  Q 129.97 152.00 129.90 152.00
  Q 112.20 151.99 94.50 151.78
  Q 92.67 151.76 91.50 152.34
  A 0.91 0.91 61.8 0 0 91.12 153.60
  L 151.00 259.31
  A 0.88 0.87 -44.7 0 1 150.99 260.19
  Q 119.81 312.43 88.61 364.66
  Q 86.61 368.00 90.50 368.00
  Q 108.75 368.00 127.00 368.21
  Q 130.82 368.25 132.19 365.69
  Q 153.79 325.14 175.73 283.78
  Q 176.16 282.96 176.60 283.78
  Q 198.29 323.44 219.55 362.42
  Q 219.59 362.49 220.36 364.12
  Q 221.25 366.01 222.90 367.07
  Q 224.35 368.00 227.31 368.00
  Q 246.87 368.04 266.45 367.94
  A 1.40 1.40 -9.7 0 0 267.77 366.08
  Q 266.95 363.74 265.32 360.99
  Q 234.78 309.57 204.09 257.30
  A 1.24 1.24 -90.0 0 1 204.09 256.04
  Q 233.29 205.86 262.16 156.27
  Q 263.33 154.25 263.34 154.23
  Q 264.30 152.06 261.25 152.05
  Q 243.75 152.00 226.25 151.84
  Q 222.31 151.80 220.31 155.81
  Q 209.88 176.72 179.30 235.00
  Q 179.06 235.44 178.84 235.00"
/>
<path stroke="#a33197" vector-effect="non-scaling-stroke" d="
  M 336.69 333.06
  Q 349.37 345.08 367.16 343.82
  Q 371.84 343.48 373.34 343.26
  Q 376.47 342.81 379.34 341.48
  A 1.13 1.13 77.9 0 0 380.00 340.45
  L 380.00 245.20
  A 2.42 2.41 13.9 0 0 378.70 243.06
  Q 374.29 240.74 368.74 240.32
  Q 344.32 238.44 330.65 258.16
  Q 319.16 274.74 320.25 296.25
  Q 321.39 318.56 336.69 333.06"
/>
</g>
<path fill="#470137" d="
  M 496.00 403.98
  A 84.02 84.02 0.0 0 1 411.98 488.00
  L 100.02 488.00
  A 84.02 84.02 0.0 0 1 16.00 403.98
  L 16.00 108.02
  A 84.02 84.02 0.0 0 1 100.02 24.00
  L 411.98 24.00
  A 84.02 84.02 0.0 0 1 496.00 108.02
  L 496.00 403.98
  Z
  M 306.14 353.36
  Q 315.07 361.51 325.50 365.75
  Q 336.11 370.06 347.71 371.31
  Q 356.04 372.20 367.68 371.72
  Q 396.14 370.56 422.00 358.89
  Q 424.41 357.80 423.80 355.22
  Q 422.31 348.86 420.79 342.68
  Q 420.18 340.20 420.08 338.26
  Q 419.99 336.33 420.00 333.75
  Q 420.23 265.80 419.79 177.60
  Q 419.78 175.68 420.02 161.41
  Q 420.16 153.15 419.72 145.18
  A 1.22 1.21 88.3 0 0 418.50 144.02
  L 381.44 144.23
  A 1.50 1.46 -90.0 0 0 379.99 145.72
  L 379.82 212.81
  A 0.43 0.43 4.6 0 1 379.32 213.23
  Q 344.50 207.74 317.37 227.09
  Q 309.04 233.03 302.64 240.53
  Q 285.26 260.90 284.00 288.99
  Q 283.20 306.93 288.11 324.18
  Q 293.00 341.36 306.14 353.36
  Z
  M 178.84 235.00
  Q 157.81 194.70 136.94 154.31
  Q 135.57 151.66 132.09 151.87
  Q 129.97 152.00 129.90 152.00
  Q 112.20 151.99 94.50 151.78
  Q 92.67 151.76 91.50 152.34
  A 0.91 0.91 61.8 0 0 91.12 153.60
  L 151.00 259.31
  A 0.88 0.87 -44.7 0 1 150.99 260.19
  Q 119.81 312.43 88.61 364.66
  Q 86.61 368.00 90.50 368.00
  Q 108.75 368.00 127.00 368.21
  Q 130.82 368.25 132.19 365.69
  Q 153.79 325.14 175.73 283.78
  Q 176.16 282.96 176.60 283.78
  Q 198.29 323.44 219.55 362.42
  Q 219.59 362.49 220.36 364.12
  Q 221.25 366.01 222.90 367.07
  Q 224.35 368.00 227.31 368.00
  Q 246.87 368.04 266.45 367.94
  A 1.40 1.40 -9.7 0 0 267.77 366.08
  Q 266.95 363.74 265.32 360.99
  Q 234.78 309.57 204.09 257.30
  A 1.24 1.24 -90.0 0 1 204.09 256.04
  Q 233.29 205.86 262.16 156.27
  Q 263.33 154.25 263.34 154.23
  Q 264.30 152.06 261.25 152.05
  Q 243.75 152.00 226.25 151.84
  Q 222.31 151.80 220.31 155.81
  Q 209.88 176.72 179.30 235.00
  Q 179.06 235.44 178.84 235.00
  Z"
/>
<path fill="#ff61f6" d="
  M 306.14 353.36
  Q 293.00 341.36 288.11 324.18
  Q 283.20 306.93 284.00 288.99
  Q 285.26 260.90 302.64 240.53
  Q 309.04 233.03 317.37 227.09
  Q 344.50 207.74 379.32 213.23
  A 0.43 0.43 4.6 0 0 379.82 212.81
  L 379.99 145.72
  A 1.50 1.46 -90.0 0 1 381.44 144.23
  L 418.50 144.02
  A 1.22 1.21 88.3 0 1 419.72 145.18
  Q 420.16 153.15 420.02 161.41
  Q 419.78 175.68 419.79 177.60
  Q 420.23 265.80 420.00 333.75
  Q 419.99 336.33 420.08 338.26
  Q 420.18 340.20 420.79 342.68
  Q 422.31 348.86 423.80 355.22
  Q 424.41 357.80 422.00 358.89
  Q 396.14 370.56 367.68 371.72
  Q 356.04 372.20 347.71 371.31
  Q 336.11 370.06 325.50 365.75
  Q 315.07 361.51 306.14 353.36
  Z
  M 336.69 333.06
  Q 349.37 345.08 367.16 343.82
  Q 371.84 343.48 373.34 343.26
  Q 376.47 342.81 379.34 341.48
  A 1.13 1.13 77.9 0 0 380.00 340.45
  L 380.00 245.20
  A 2.42 2.41 13.9 0 0 378.70 243.06
  Q 374.29 240.74 368.74 240.32
  Q 344.32 238.44 330.65 258.16
  Q 319.16 274.74 320.25 296.25
  Q 321.39 318.56 336.69 333.06
  Z"
/>
<path fill="#ff61f6" d="
  M 179.30 235.00
  Q 209.88 176.72 220.31 155.81
  Q 222.31 151.80 226.25 151.84
  Q 243.75 152.00 261.25 152.05
  Q 264.30 152.06 263.34 154.23
  Q 263.33 154.25 262.16 156.27
  Q 233.29 205.86 204.09 256.04
  A 1.24 1.24 0.0 0 0 204.09 257.30
  Q 234.78 309.57 265.32 360.99
  Q 266.95 363.74 267.77 366.08
  A 1.40 1.40 -9.7 0 1 266.45 367.94
  Q 246.87 368.04 227.31 368.00
  Q 224.35 368.00 222.90 367.07
  Q 221.25 366.01 220.36 364.12
  Q 219.59 362.49 219.55 362.42
  Q 198.29 323.44 176.60 283.78
  Q 176.16 282.96 175.73 283.78
  Q 153.79 325.14 132.19 365.69
  Q 130.82 368.25 127.00 368.21
  Q 108.75 368.00 90.50 368.00
  Q 86.61 368.00 88.61 364.66
  Q 119.81 312.43 150.99 260.19
  A 0.88 0.87 -44.7 0 0 151.00 259.31
  L 91.12 153.60
  A 0.91 0.91 61.8 0 1 91.50 152.34
  Q 92.67 151.76 94.50 151.78
  Q 112.20 151.99 129.90 152.00
  Q 129.97 152.00 132.09 151.87
  Q 135.57 151.66 136.94 154.31
  Q 157.81 194.70 178.84 235.00
  Q 179.06 235.44 179.30 235.00
  Z"
/>
<path fill="#470137" d="
  M 336.69 333.06
  Q 321.39 318.56 320.25 296.25
  Q 319.16 274.74 330.65 258.16
  Q 344.32 238.44 368.74 240.32
  Q 374.29 240.74 378.70 243.06
  A 2.42 2.41 13.9 0 1 380.00 245.20
  L 380.00 340.45
  A 1.13 1.13 77.9 0 1 379.34 341.48
  Q 376.47 342.81 373.34 343.26
  Q 371.84 343.48 367.16 343.82
  Q 349.37 345.08 336.69 333.06
  Z"
/>
</svg>
